<?xml version="1.0" encoding="utf-8"?>
<!-- Generator: Adobe Illustrator 22.1.0, SVG Export Plug-In . SVG Version: 6.00 Build 0)  -->
<svg version="1.1" id="Layer_1" xmlns="http://www.w3.org/2000/svg" xmlns:xlink="http://www.w3.org/1999/xlink" x="0px" y="0px"
	 viewBox="0 0 1920 3080" style="enable-background:new 0 0 1920 3080;" xml:space="preserve">
<style type="text/css">
	.st0{fill:#7C4D25;}
	.st1{fill:url(#SVGID_1_);}
	.st2{fill:url(#SVGID_2_);stroke:#000000;stroke-miterlimit:10;}
	.st3{fill:#40A3AD;stroke:#000000;stroke-miterlimit:10;}
	.st4{fill:#5EC1D1;stroke:#000000;stroke-miterlimit:10;}
	.st5{fill:#4F3DA5;stroke:#000000;stroke-miterlimit:10;}
	.st6{fill:#FFFFFF;}
	.st7{fill:#8079B2;stroke:#000000;stroke-miterlimit:10;}
	.st8{fill:url(#SVGID_3_);stroke:#000000;stroke-miterlimit:10;}
	.st9{fill:#4EC64E;stroke:#000000;stroke-miterlimit:10;}
	.st10{fill:#45A39F;}
	.st11{fill:#427696;}
	.st12{fill:#546A79;}
	.st13{fill:#ECF0F1;}
	.st14{fill:#38454F;}
	.st15{fill:#7F8C8D;}
	.st16{fill:#556080;}
	.st17{fill:#E35050;}
	.st18{fill:#178747;}
	.st19{fill:#046029;}
	.st20{fill:#89867C;}
	.st21{fill:#6D6B64;}
	.st22{fill:#FFAE0B;}
	.st23{fill:#FFD00D;}
	.st24{fill:#7A8487;}
	.st25{fill:#596568;}
	.st26{fill:#FF860D;}
	.st27{fill:#E56A0E;}
	.st28{fill:#77ACBF;}
	.st29{fill:#E8D918;}
	.st30{fill:#539AAD;}
	.st31{fill:#B0EBE1;}
	.st32{fill:#80CDD6;}
	.st33{fill:#88C9DB;}
	.st34{fill:#56A0BF;}
	.st35{fill:#393B85;}
	.st36{fill:#E5741A;}
	.st37{fill:#FE8821;}
	.st38{fill:#FEA832;}
	.st39{fill:#3C3A41;}
	.st40{fill:#E5E5E5;}
	.st41{fill:#D9D9D9;}
	.st42{fill:#F4ED9D;}
	.st43{fill:none;}
	.st44{fill:#297F29;stroke:#000000;stroke-miterlimit:10;}
	.st45{fill:#2E932E;stroke:#000000;stroke-miterlimit:10;}
	.st46{fill:#788787;}
	.st47{fill:#9E6226;}
	.st48{fill:#AF7643;}
	.st49{fill:#0C91C4;}
	.st50{fill:#22B3E0;}
	.st51{fill:#E00E0E;}
	.st52{fill:#BF1111;}
	.st53{fill:#CC9E44;stroke:#000000;stroke-miterlimit:10;}
	.st54{fill:#184929;stroke:#020202;stroke-miterlimit:10;}
	.st55{fill:#184929;stroke:#070707;stroke-miterlimit:10;}
	.st56{fill:#184929;stroke:#050505;stroke-miterlimit:10;}
	.st57{fill:#FFFFFF;stroke:#FFFFFF;stroke-miterlimit:10;}
	.st58{fill:#FFFFFF;stroke:#FCFCFC;stroke-miterlimit:10;}
	.st59{fill:#1C160D;}
	.bubble {
    animation: kek 2s infinite;
  }
  @keyframes kek {
    0%{
      transform: translate(0%, -0%);
    }
    20%{
      transform: translate(1%, -1%);
    }
    40%{
      transform: translate(0%, -2%);
    }
    60%{
      transform: translate(1%, -3%);
    }
    80%{
      opacity: 1;
      transform: translate(0%, -4%);
    }
    100%{
      transform: translate(1%, -5%);
      opacity: 0;
    }
  }
   .bubble1 {
    animation: keks 1.5s infinite;
  }
  @keyframes keks {
    0%{
      transform: translate(0%, -0%);
    }
    20%{
      transform: translate(1%, -1%);
    }
    40%{
      transform: translate(0%, -2%);
    }
    60%{
      transform: translate(1%, -3%);
    }
    80%{
      opacity: 1;
      transform: translate(0%, -4%);
    }
    100%{
      transform: translate(1%, -5%);
      opacity: 0;
    }
  }
    .bubble2 {
    animation: kekd 2.5s infinite;
  }
  @keyframes kekd {
    0%{
      transform: translate(0%, -0%);
    }
    20%{
      transform: translate(1%, -1%);
    }
    40%{
      transform: translate(0%, -2%);
    }
    60%{
      transform: translate(1%, -3%);
    }
    80%{
      opacity: 1;
      transform: translate(0%, -4%);
    }
    100%{
      transform: translate(1%, -5%);
      opacity: 0;
    }
  }


  .submarine {
    animation: swim 35s infinite;
  }
  @keyframes swim{
    0%{
      transform: translateX(-50%);
    }
    100%{
      transform: translateX(100%);
    }
  }
  .fishy {
        animation: what 15s infinite;
  }

  @keyframes what{
    0%{
      transform: translateX(100%);
    }
    100%{
      transform: translateX(-100%);
    }
  }
  .fishy1 {
        animation: what 15s infinite;
  }

  @keyframes what{
    0%{
      transform: translateX(100%);
    }
    100%{
      transform: translateX(-100%);
    }
  }

  .fishy2 {
    animation: swim1 20s infinite;
  }
  @keyframes swim1{
    0%{
      transform: translateX(-50%);
    }
    100%{
      transform: translateX(120%);
    }
  }
 .sun {
    animation: rot 20s infinite linear;
    transform-origin: 92% 4%;
  }
  @keyframes rot{
    0%{
      transform: rotate(0deg);
    }
    100%{
      transform: rotate(360deg);
    }
  }
  .ship{
    animation: swm 20s infinite;
  }
    @keyframes swm{
    0%{
      transform: translateX(-100%);
    }
    100%{
      transform: translateX(100%);
    }
  }

</style>
<g id="change2">
	<path class="st0" d="M180.5,488.1c0,6.6-5.3,11.9-11.9,11.9h-2.3c-6.6,0-11.9-5.3-11.9-11.9V305.6c0-6.6,5.3-11.9,11.9-11.9h2.3
		c6.6,0,11.9,5.3,11.9,11.9V488.1L180.5,488.1z"/>
</g>
<g>
	<g>
		
			<linearGradient id="SVGID_1_" gradientUnits="userSpaceOnUse" x1="956.556" y1="17990.0449" x2="968.6996" y2="16020.9717" gradientTransform="matrix(1 0 0 -1 0 19096)">
			<stop  offset="0" style="stop-color:#146164"/>
			<stop  offset="1" style="stop-color:#1C26ED"/>
		</linearGradient>
		<rect y="907.6" class="st1" width="1924.1" height="2178.4"/>
	</g>
</g>
<linearGradient id="SVGID_2_" gradientUnits="userSpaceOnUse" x1="364" y1="-4191.0498" x2="1598.0121" y2="-4191.0498" gradientTransform="matrix(1 0 0 1 0 4576)">
	<stop  offset="0" style="stop-color:#5BC4EC"/>
	<stop  offset="1" style="stop-color:#C4E7FB"/>
</linearGradient>
<rect y="-0.3" class="st2" width="1924.1" height="770.5"/>
<path class="st3" d="M342,755.8c-109.2-0.1-218.4-0.3-327.7-0.5c-1.8,0-3.5,0-5.2,0c53.3-136.5,106.6-273,159.9-409.5L342,755.8z"/>
<polygon class="st4" points="716.8,440.5 546.6,751.5 887.1,751.5 "/>
<polygon class="st4" points="998.2,370.5 766,749.5 1230.6,749.5 "/>
<polygon class="st4" points="1554.2,340 1308,751.5 1800.5,751.5 "/>
<path class="st4" d="M1771,298.2l-195,444.5c82.2,0,164.4,0,246.6,0c47.8,0,95.5,0,143.2,0C1900.9,594.5,1835.9,446.4,1771,298.2z"
	/>
<path class="st5" d="M550.5,797.5"/>
<g>
	<g>
		<polygon class="st5" points="522.6,388.4 326.1,755.8 719.1,755.8 		"/>
	</g>
	<g>
		<polygon class="st6" points="474.9,483.2 539.6,415 514.3,403 		"/>
		<polygon class="st6" points="545,482.6 534.7,398.3 514.4,401.7 		"/>
		<polygon class="st6" points="503.7,494 537.9,405.1 514.3,401.2 		"/>
		<polygon class="st6" points="568.7,468.7 535.7,401.8 506.1,418.4 		"/>
		<polygon class="st6" points="525.1,379.1 510.4,409.7 539.9,409.7 		"/>
	</g>
	<polygon class="st7" points="702.8,714.3 570.8,659.3 535,567.1 526.5,439.3 543.4,467.5 542.3,450.4 564.9,467 	"/>
</g>
<g>
	<polyline class="st5" points="925.5,748.5 986.9,574 1086.3,556.1 1128,508 1165.7,464.4 1286,750.5 	"/>
	<polygon class="st6" points="1134.5,548.8 1154.4,500.9 1169.5,556.1 1169.5,518 1195.8,536.2 1164.8,464.4 1123.3,513.3 	"/>
	<polygon class="st7" points="1249.3,663.2 1159.1,607.2 1139.7,536.2 1159.1,500.9 1163.9,544.8 1169.5,518 1196,535.8 	"/>
</g>
<g>
	<polygon class="st5" points="1249.3,722.7 1334.7,358.8 1568.2,725.7 	"/>
	<polygon class="st7" points="1340.7,385.7 1379.1,556.6 1503.6,624.1 1348.7,380.8 	"/>
	<polygon class="st6" points="1337.3,358.8 1307.2,440.9 1322.9,465.8 1337.3,417 1364.8,445.2 1364.8,427.2 1381.8,427.2 	"/>
</g>
<g>
	<polygon class="st5" points="1554.3,763.7 1632.6,412.3 1834.8,582.1 1898,756.5 	"/>
	<polygon class="st7" points="1765.6,624.8 1854.3,635.8 1834.8,581.8 1632.6,412.3 	"/>
	<polygon class="st6" points="1635.4,493.1 1618.5,475.2 1632.6,412.3 1702.9,471.3 1660.7,457.2 	"/>
</g>
<polygon class="st5" points="8,754.6 71.4,392.7 156.4,517.7 224.4,517.7 293,755.8 "/>
<polygon class="st7" points="150.4,598.7 59.4,461.2 71.4,392.7 162.5,517.7 224.4,517.7 254.9,623.6 157.4,605.7 "/>
<polygon class="st6" points="102.4,482.7 63.9,468.1 63.9,424.3 71.4,392.7 125.1,466.3 94.4,449.7 105.4,470.7 "/>
<path class="st7" d="M1910.5,1178.5"/>
<linearGradient id="SVGID_3_" gradientUnits="userSpaceOnUse" x1="248.5" y1="18025.5" x2="248.5" y2="18025.5" gradientTransform="matrix(1 0 0 -1 0 19096)">
	<stop  offset="0" style="stop-color:#146164"/>
	<stop  offset="1" style="stop-color:#1C26ED"/>
</linearGradient>
<path class="st8" d="M248.5,1070.5"/>
<path class="st9" d="M1919,1272"/>
<rect y="763.7" class="st10" width="1920" height="150.3"/>
<g>
	<g>
		<ellipse class="st11" cx="661" cy="2874.5" rx="9.3" ry="9"/>
		
			<ellipse transform="matrix(0.7287 -0.6848 0.6848 0.7287 -1785.5466 1234.4338)" class="st6" cx="665.3" cy="2870.9" rx="1.2" ry="2.3"/>
	</g>
	<g>
		<ellipse class="st11" cx="711.1" cy="2870.9" rx="9.3" ry="9"/>
		
			<ellipse transform="matrix(0.7287 -0.6848 0.6848 0.7287 -1769.4041 1267.8268)" class="st6" cx="715.5" cy="2867.2" rx="1.2" ry="2.3"/>
	</g>
	<g>
		<ellipse class="st11" cx="609.3" cy="2861.9" rx="9.3" ry="9"/>
		
			<ellipse transform="matrix(0.7287 -0.6848 0.6848 0.7287 -1790.879 1195.6077)" class="st6" cx="613.6" cy="2858.2" rx="1.2" ry="2.3"/>
	</g>
	<g>
		<ellipse class="st11" cx="682.3" cy="2870.9" rx="9.3" ry="9"/>
		
			<ellipse transform="matrix(0.7287 -0.6848 0.6848 0.7287 -1777.2437 1248.025)" class="st6" cx="686.6" cy="2867.2" rx="1.2" ry="2.3"/>
	</g>
	<g>
		<ellipse class="st11" cx="634.4" cy="2868.3" rx="9.3" ry="9"/>
		
			<ellipse transform="matrix(0.7287 -0.6848 0.6848 0.7287 -1788.4398 1214.6063)" class="st6" cx="638.8" cy="2864.6" rx="1.2" ry="2.3"/>
	</g>
	<g>
		<ellipse class="st11" cx="674.6" cy="2846.9" rx="9.3" ry="9"/>
		
			<ellipse transform="matrix(0.7287 -0.6848 0.6848 0.7287 -1762.8669 1236.3021)" class="st6" cx="679" cy="2843.2" rx="1.2" ry="2.3"/>
	</g>
	<g>
		<ellipse class="st11" cx="650.5" cy="2846" rx="9.3" ry="9"/>
		
			<ellipse transform="matrix(0.7287 -0.6848 0.6848 0.7287 -1768.7781 1219.4856)" class="st6" cx="654.8" cy="2842.3" rx="1.2" ry="2.3"/>
	</g>
	<g>
		<ellipse class="st11" cx="1357.1" cy="2878.9" rx="9.3" ry="9"/>
		
			<ellipse transform="matrix(0.7287 -0.6848 0.6848 0.7287 -1599.7488 1712.2766)" class="st6" cx="1361.3" cy="2875.3" rx="1.2" ry="2.3"/>
	</g>
	<g>
		<ellipse class="st11" cx="1407.3" cy="2875.2" rx="9.3" ry="9"/>
		
			<ellipse transform="matrix(0.7287 -0.6848 0.6848 0.7287 -1583.5892 1745.5579)" class="st6" cx="1411.4" cy="2871.5" rx="1.2" ry="2.3"/>
	</g>
	<g>
		<ellipse class="st11" cx="1305.4" cy="2866.2" rx="9.3" ry="9"/>
		
			<ellipse transform="matrix(0.7287 -0.6848 0.6848 0.7287 -1605.0651 1673.4192)" class="st6" cx="1309.6" cy="2862.6" rx="1.2" ry="2.3"/>
	</g>
	<g>
		<ellipse class="st11" cx="1378.4" cy="2875.2" rx="9.3" ry="9"/>
		
			<ellipse transform="matrix(0.7287 -0.6848 0.6848 0.7287 -1591.4158 1725.7589)" class="st6" cx="1382.5" cy="2871.5" rx="1.2" ry="2.3"/>
	</g>
	<g>
		<ellipse class="st11" cx="1330.6" cy="2872.6" rx="9.3" ry="9"/>
		
			<ellipse transform="matrix(0.7287 -0.6848 0.6848 0.7287 -1602.6199 1692.3927)" class="st6" cx="1334.8" cy="2869" rx="1.2" ry="2.3"/>
	</g>
	<g>
		<ellipse class="st11" cx="1370.8" cy="2851.3" rx="9.3" ry="9"/>
		
			<ellipse transform="matrix(0.7287 -0.6848 0.6848 0.7287 -1577.0688 1714.1693)" class="st6" cx="1375.1" cy="2847.6" rx="1.2" ry="2.3"/>
	</g>
	<g>
		<ellipse class="st11" cx="1346.6" cy="2850.2" rx="9.3" ry="9"/>
		
			<ellipse transform="matrix(0.7287 -0.6848 0.6848 0.7287 -1582.8978 1697.3629)" class="st6" cx="1350.9" cy="2846.6" rx="1.2" ry="2.3"/>
	</g>
</g>
<g>
	<path class="st12" d="M586,1611.5c-62.8,0-113.8-51.1-113.8-114.2c0-62.8,51.1-114.2,113.8-114.2s113.8,51.1,113.8,114.2
		C700,1560.2,648.8,1611.5,586,1611.5z"/>
	<path class="st13" d="M586,1418.8c-45.3,0-81.9,35.2-81.9,78.6c0,36.1,25.7,66.5,60.3,75.7c-0.5-2.4-1.1-4.8-1.1-7.3
		c0-13.9,10.3-25.3,22.7-25.3c12.6,0,22.7,11.4,22.7,25.3c0,2.6-0.4,4.9-1.1,7.3c34.6-9.2,60.3-39.6,60.3-75.7
		C668.1,1454,631.3,1418.8,586,1418.8z"/>
	<path class="st14" d="M586,1383.2c16.1,0,31.5,3.5,45.4,9.5c-0.5-16.5-20.7-29.9-45.4-29.9c-24.9,0-45.1,13.4-45.4,29.9
		C554.5,1386.7,569.9,1383.2,586,1383.2z"/>
	<g>
		<path class="st6" d="M536,1474.5c1.1,0,2.4-0.5,3.3-1.5l18.1-20.3c1.8-2,1.8-5.1,0-7.1s-4.6-2-6.4,0l-18.1,20.3
			c-1.8,2-1.8,5.1,0,7.1C533.6,1474.1,534.7,1474.5,536,1474.5z"/>
		<path class="st6" d="M550.8,1471c-0.7,0.9-1.3,2.2-1.3,3.7c0,1.3,0.5,2.6,1.3,3.7c0.9,0.9,2,1.5,3.3,1.5c1.1,0,2.4-0.5,3.3-1.5
			c0.7-0.9,1.3-2.2,1.3-3.7c0-1.3-0.5-2.6-1.3-3.7C555.8,1469.2,552.7,1469.2,550.8,1471z"/>
		<path class="st6" d="M586,1469.5c1.1,0,2.4-0.5,3.3-1.5c0.7-0.9,1.3-2.2,1.3-3.7s-0.5-2.6-1.3-3.7c-1.6-1.8-4.8-1.8-6.4,0
			c-0.7,0.9-1.3,2.2-1.3,3.7c0,1.3,0.5,2.6,1.3,3.7C583.6,1469,584.9,1469.5,586,1469.5z"/>
		<path class="st6" d="M595.2,1459.3c1.1,0,2.4-0.5,3.3-1.5l4.6-5.1c1.8-2,1.8-5.1,0-7.1s-4.6-2-6.4,0l-4.6,5.1
			c-1.8,2-1.8,5.1,0,7.1C592.8,1458.9,593.9,1459.3,595.2,1459.3z"/>
		<path class="st6" d="M596.4,1471l-9.2,10.1c-1.8,2-1.8,5.1,0,7.1c0.9,0.9,2,1.5,3.3,1.5c1.1,0,2.4-0.5,3.3-1.5l9.2-10.1
			c1.8-2,1.8-5.1,0-7.1S598.3,1469,596.4,1471z"/>
		<path class="st6" d="M578.3,1491.3c-0.7,0.9-1.3,2.2-1.3,3.7s0.5,2.6,1.3,3.7c0.9,0.9,2,1.5,3.3,1.5s2.4-0.5,3.3-1.5
			c0.7-0.9,1.3-2.2,1.3-3.7s-0.5-2.6-1.3-3.7C582.9,1489.3,580,1489.3,578.3,1491.3z"/>
		<path class="st6" d="M569.1,1501.4l-13.7,15.2c-1.8,2-1.8,5.1,0,7.1c0.9,0.9,2,1.5,3.3,1.5c1.1,0,2.4-0.5,3.3-1.5l13.7-15.2
			c1.8-2,1.8-5.1,0-7.1C573.9,1499.4,571,1499.4,569.1,1501.4z"/>
		<path class="st6" d="M552.8,1501.4c-1.6-1.8-4.8-1.8-6.4,0c-0.7,0.9-1.3,2.2-1.3,3.7c0,1.3,0.5,2.6,1.3,3.7c0.9,0.9,2,1.5,3.3,1.5
			c1.1,0,2.4-0.5,3.3-1.5c0.7-0.9,1.3-2.2,1.3-3.7C554.1,1503.6,553.6,1502.3,552.8,1501.4z"/>
		<path class="st6" d="M537.3,1511.5l-4.6,5.1c-1.8,2-1.8,5.1,0,7.1c0.9,0.9,2,1.5,3.3,1.5c1.1,0,2.4-0.5,3.3-1.5l4.6-5.1
			c1.8-2,1.8-5.1,0-7.1C541.8,1509.5,539.1,1509.5,537.3,1511.5z"/>
	</g>
	<ellipse class="st15" cx="586" cy="1565.9" rx="22.7" ry="25.3"/>
	<path class="st14" d="M683.3,1556.6c-1.8,2.9-3.8,5.9-5.9,8.6c0.5,0.5,1.3,0.7,2,0.9c19.4,2.6,34.1,21.1,34.1,42.7
		c0,22.4-15,40.7-34.8,42.9c-2.6,0.2-4.4,2.7-4,5.5c0.2,2.6,2.2,4.6,4.6,4.6c0.2,0,0.4,0,0.4,0c24.6-2.7,43.1-25.5,43.1-53
		C722.7,1583.1,705.8,1561.1,683.3,1556.6z"/>
	<path class="st16" d="M654.3,1589H654c-19.1,14.1-42.5,22.5-68,22.5c-25.3,0-48.7-8.4-67.8-22.4l-26.6,27.7
		c-10.6,11.2-9.9,30.6,1.8,40.1l0.2,0.2h184.9l0.2-0.2c11.9-9.5,12.6-29,1.8-40.1L654.3,1589z"/>
	<path class="st15" d="M680.2,1609.5c-1.1-2.6-3.8-3.5-6.2-2.2c-7.7,4.4-15.4,8.2-23.5,11.5L638,1598l-7.5,5.7l11.2,18.7
		c-6.6,2.4-13.4,4.2-20.2,5.7l-7.5-20.9l-8.4,3.8l6.8,18.7c-8.6,1.3-17.2,2.2-25.8,2.2c-8.8,0-17.8-0.7-26.6-2.2l6.8-18.9l-8.4-3.8
		l-7.5,20.9c-6.8-1.5-13.6-3.3-20.2-5.7l11.2-18.7l-7.5-5.7l-12.5,20.9c-7.9-3.3-15.6-7-22.9-11.4c-2.2-1.3-4.9-0.4-6.2,2.2
		c-1.1,2.6-0.4,5.5,1.8,6.8c28.6,16.9,60.3,25.7,92,25.7c31.5,0,63.4-8.8,92-25.7C680.5,1615,681.3,1611.9,680.2,1609.5z"/>
	<rect x="581.4" y="1591.2" class="st14" width="9.2" height="45.6"/>
</g>
<g class='ship'>
	<path class="st17 ship" d="M129.1,2817.7c-0.9-4.1-8-40.6-7.8-55.1c0.1-14.6-7.6-48.3,22.2-22.5c28.5,24.7,50.9,46,69.6,39.7
		c21-7,71.9-25.3,78.7-25.4c6.7-0.1,13.7,7.8-7.3,33.3c-21,25.4-37.9,31.7-15.9,51.3c29,25.6,55.3,45.4,47.9,57.1
		c-7.5,11.9-27.5,7.4-56.5-5.7c-26.6-12-51.8-30.3-53.5,10.1c-1.2,30.6,5.1,73.6-11.9,78.5c-16.5,4.8-28.8-26.8-39.9-50.8
		s-9.6-49.7-30.6-44.2s-66.9,19.6-74.4,6c-5.2-9.4,21.6-29.6,43-40.3C115,2838.9,133.4,2836.2,129.1,2817.7z"/>
	<path class="st6" d="M231.7,2844.6c-2.3-3.8-7.2-5.4-10.9-3.4c-3.7,1.9-4.9,6.7-2.6,10.5s7.2,5.4,10.9,3.4
		C232.8,2853.2,234,2848.4,231.7,2844.6z"/>
	<path class="st6" d="M169.5,2801.7c-2.3-3.8-7.2-5.4-10.9-3.4c-3.7,1.9-4.9,6.7-2.6,10.5c2.3,3.8,7.2,5.4,10.9,3.4
		C170.7,2810.3,171.8,2805.5,169.5,2801.7z"/>
	<path class="st6" d="M235.2,2797.8c-2.3-3.8-7.2-5.4-10.9-3.4c-3.7,1.9-4.9,6.7-2.6,10.5c2.3,3.8,7.2,5.4,10.9,3.4
		C236.3,2806.3,237.5,2801.6,235.2,2797.8z"/>
	<path class="st6" d="M205.5,2827.2c-1.7-2.8-5.2-3.9-7.9-2.5c-2.7,1.5-3.5,4.9-1.9,7.6c1.7,2.8,5.2,3.9,7.9,2.5
		C206.3,2833.4,207.2,2830,205.5,2827.2z"/>
	<path class="st6" d="M182.3,2889c-1.7-2.8-5.2-3.9-7.9-2.5c-2.7,1.5-3.5,4.9-1.9,7.6s5.2,3.9,7.9,2.5
		C183.1,2895.1,184,2891.7,182.3,2889z"/>
	<path class="st6" d="M151.3,2855.3c-1.7-2.8-5.2-3.9-7.9-2.5c-2.7,1.5-3.5,4.9-1.9,7.6c1.7,2.8,5.2,3.9,7.9,2.5
		C152.1,2861.5,153,2858.1,151.3,2855.3z"/>
	<path class="st6" d="M158.6,2777.8c-1.7-2.8-5.2-3.9-7.9-2.5c-2.7,1.5-3.5,4.9-1.9,7.6c1.7,2.8,5.2,3.9,7.9,2.5
		C159.5,2784.1,160.3,2780.7,158.6,2777.8z"/>
</g>
<g>
	<path class="st18" d="M1587.6,2926.2c-15.8,12.1-125.6-173.3-107.5-201.2c3.5-5.5,11.2-3.8,16.5-2.5c66.5,16,102.9,158.6,93,199.8
		C1589.3,2923.7,1588.8,2925.3,1587.6,2926.2z"/>
	<path class="st18" d="M1546,2658.3c0.4,0.6,1.4,2.3,2.5,4.5c7,12.6,58.7,107.7,63.1,241.7c0.6,18.2-0.2,21.1-1.3,21.5
		c-8,3.2-41.7-126.4-69.5-239"/>
	<path class="st18" d="M1602.2,2692.8c-3.3,189.5,2.2,232.5,8.3,233.3c6.9,0.9,17.1-52.1,20.1-90.8c4.8-62.5-7.4-112.2-15.3-137.8"
		/>
	<path class="st18" d="M1631.6,2926.1c13.1,3.7,65.5-207.8,53.2-215.1c-6.7-4-35.9,50.7-48.4,110.2
		C1626.9,2866.4,1624.9,2924.2,1631.6,2926.1z"/>
	<path class="st19" d="M1532.3,2772.6c0.6-37.3,3.5-55.9,8.7-56c10.6-0.2,30.6,76,60.2,228.4"/>
	<path class="st19" d="M1608.5,2948c-12.7-5.7,19.3-209.9,32.9-208.2c7.8,1,14.7,70.4-1.2,134.3
		C1631.9,2907.4,1614.7,2950.7,1608.5,2948z"/>
	<path class="st19" d="M1599.5,2940.8c14.3-4.3-3.7-230.6-18.5-230.7c-8.1-0.1-19.2,67.5-11.8,130.5
		C1574.9,2888.2,1592.2,2943,1599.5,2940.8z"/>
</g>
<g>
	<path class="st18" d="M1794.1,2925.2c-20.1,3.2-73.1-227-45.4-243.7c5.4-3.3,12.8,2.3,17.8,6.2c63.2,49.5,54.5,201.6,30.9,235
		C1796.6,2923.7,1795.6,2925,1794.1,2925.2z"/>
	<path class="st18" d="M1787.8,2635.6c0.3,0.7,1.1,2.6,2.1,5.1c5.9,14.3,48.6,121.3,33.6,255.9c-2,18.3-3.4,21-4.6,21.2
		c-9.3,1.3-27.1-135.9-41-254.7"/>
	<path class="st18" d="M1852.1,2674.3c-38.5,186.4-40.5,230.5-34,233c7.4,2.9,28.2-46.5,38.6-83.8c16.7-60.4,12.6-113,8.7-140.7"/>
	<path class="st18" d="M1827.1,2903.6c14,6.2,97.2-195.8,84.5-205.5c-6.9-5.3-45.7,43.9-66.6,101.2
		C1829.1,2842.8,1820,2900.4,1827.1,2903.6z"/>
	<path class="st19" d="M1715.3,2784.4c-11.2-35.3-14.1-54.2-8.7-56.9c10.9-5.5,55.6,55.9,134.4,184.1"/>
	<path class="st19" d="M1802.4,2913.6c-10.9-12.5,93.7-182,106.8-172.8c7.5,5.3-10,73-48.6,122.8
		C1840.6,2889.5,1807.8,2919.6,1802.4,2913.6z"/>
	<path class="st19" d="M1834,2926.8c19-4.2-4.9-226.7-24.4-226.9c-10.7-0.1-25.4,66.4-15.6,128.3
		C1801.4,2875.1,1824.3,2929,1834,2926.8z"/>
</g>
<g>
	<path class="st20" d="M535.2,1978.4c-11.3,0-21.1-9.7-21.1-20.9v-121.1c0-11.2,9.8-20.9,21.1-20.9h46.6v25.4H539v116.6
		c0-2.2-2.3-4.5-4.5-4.5v25.4H535.2z"/>
	<g>
		<path class="st21" d="M535.2,1840.8c-11.3,0-21.1,9.7-21.1,20.9v95.7c0,11.2,9.8,20.9,21.1,20.9V1953c2.3,0,4.5,2.2,4.5,4.5v-91.2
			v-25.4C539.8,1840.8,535.2,1840.8,535.2,1840.8z"/>
		<path class="st21" d="M584.9,1843c0,2.2-2.3,4.5-4.5,4.5l0,0c-2.3,0-4.5-2.2-4.5-4.5v-28.4c0-2.2,2.3-4.5,4.5-4.5l0,0
			c2.3,0,4.5,2.2,4.5,4.5V1843z"/>
	</g>
	<path class="st22" d="M599.9,1941c0,3-2.3,5.2-5.3,5.2h-124c-3,0-5.3-2.2-5.3-5.2l11.3-46.4c0-3,2.3-5.2,5.3-5.2h95.5
		c3,0,5.3,2.2,5.3,5.2L599.9,1941z"/>
	<path class="st23" d="M634.5,1986.6c0,4.5-3.8,8.2-8.3,8.2h-188c-4.5,0-8.3-3.7-8.3-8.2l16.5-70.3c0-4.5,3.8-8.2,8.3-8.2h145.9
		c4.5,0,8.3,3.7,8.3,8.2L634.5,1986.6z"/>
	<path class="st22" d="M634.5,1991.1c0,4.5-3.8,8.2-8.3,8.2h-188c-4.5,0-8.3-3.7-8.3-8.2l16.5-70.3c0-4.5,3.8-8.2,8.3-8.2h145.9
		c4.5,0,8.3,3.7,8.3,8.2L634.5,1991.1z"/>
	<g>
		<path class="st24" d="M365.2,2068.1c0,5.2-1.5,9.7-3.8,9.7c-1.5,0-6.8-9-6.8-14.2s5.3-4.5,6.8-4.5
			C363.7,2059.1,365.2,2062.9,365.2,2068.1z"/>
		<path class="st24" d="M354.7,2086.8c0-5.2,1.5-9.7,3.8-9.7c1.5,0,6.8,9,6.8,14.2s-5.3,4.5-6.8,4.5
			C356.2,2096.5,354.7,2092,354.7,2086.8z"/>
	</g>
	<path class="st25" d="M432.9,2077.8c0,1.5-1.5,3-3,3h-67c-1.5,0-3-1.5-3-3l0,0c0-1.5,1.5-3,3-3h67
		C431.4,2074.8,432.9,2075.6,432.9,2077.8L432.9,2077.8z"/>
	<path class="st24" d="M593.9,2086c0,4.5-3.8,8.2-8.3,8.2H408.9c-4.5,0-8.3-3.7-8.3-8.2v-18.7c0-4.5,3.8-8.2,8.3-8.2h176.8
		c4.5,0,8.3,3.7,8.3,8.2L593.9,2086L593.9,2086z"/>
	<path class="st25" d="M604.5,2086c0,4.5-3.8,8.2-8.3,8.2H419.4c-4.5,0-8.3-3.7-8.3-8.2v-18.7c0-4.5,3.8-8.2,8.3-8.2h176.8
		c4.5,0,8.3,3.7,8.3,8.2V2086L604.5,2086z"/>
	<path class="st23" d="M364.5,1988.1c0,18.7-36.1,34.4-46.6,34.4s-19.6-15.7-19.6-34.4c0-18.7,2.3-40.4,12.8-40.4
		C322.4,1947.7,364.5,1969.4,364.5,1988.1z"/>
	<path class="st22" d="M349.4,1988.1c0,18.7-20.3,34.4-31.6,34.4s-19.6-15.7-19.6-34.4c0-18.7,2.3-40.4,12.8-40.4
		C322.4,1947.7,349.4,1969.4,349.4,1988.1z"/>
	<path class="st23" d="M764.7,2015.8c0,35.1-36.9,79.3-165.5,79.3c-127.9,0-299.4-44.1-299.4-79.3c0-35.1,103.8-63.6,232.4-63.6
		S764.7,1980.6,764.7,2015.8z"/>
	<path class="st22" d="M764.7,2015.8c0,35.1-36.9,79.3-165.5,79.3c-127.9,0-299.4-44.1-299.4-79.3c0-35.1,121.9-50.8,249.7-50.8
		C678.2,1964.9,764.7,1980.6,764.7,2015.8z"/>
	<path class="st26" d="M764.7,2015.8c0,35.1-36.9,79.3-165.5,79.3c-127.9,0-299.4-44.1-299.4-79.3"/>
	<path class="st27" d="M451,2052.4c-11.3,0-20.3-17.9-20.3-29.2c0-11.2,9-20.2,20.3-20.2s20.3,9,20.3,20.2
		C471.3,2034.4,462.3,2052.4,451,2052.4z"/>
	<path class="st28" d="M451,2044.2c-11.3,0-20.3-9-20.3-20.2s9-20.2,20.3-20.2s20.3,9,20.3,20.2S462.3,2044.2,451,2044.2z"/>
	<path class="st29" d="M451,2005.3c10.5,0,18.8,8.2,18.8,18.7s-8.3,18.7-18.8,18.7s-18.8-8.2-18.8-18.7S441.2,2005.3,451,2005.3
		 M451,2000.8c-12.8,0-22.6,10.5-22.6,22.4c0,12.7,10.5,22.4,22.6,22.4c12.8,0,22.6-10.5,22.6-22.4S463.8,2000.8,451,2000.8
		L451,2000.8z"/>
	<path class="st30" d="M432.2,2023.2c0,10.5,8.3,18.7,18.8,18.7s18.8-8.2,18.8-18.7c0-3-0.8-5.2-1.5-7.5h-33.9
		C432.9,2018,432.2,2021,432.2,2023.2z"/>
	<path class="st27" d="M532.2,2052.4c-11.3,0-20.3-17.9-20.3-29.2c0-11.2,9-20.2,20.3-20.2s20.3,9,20.3,20.2
		C552.5,2034.4,543.5,2052.4,532.2,2052.4z"/>
	<path class="st28" d="M532.2,2044.2c-11.3,0-20.3-9-20.3-20.2s9-20.2,20.3-20.2s20.3,9,20.3,20.2S543.5,2044.2,532.2,2044.2z"/>
	<path class="st29" d="M532.2,2005.3c10.5,0,18.8,8.2,18.8,18.7s-8.3,18.7-18.8,18.7s-18.8-8.2-18.8-18.7S522.5,2005.3,532.2,2005.3
		 M532.2,2000.8c-12.8,0-22.6,10.5-22.6,22.4c0,12.7,10.5,22.4,22.6,22.4c12.8,0,22.6-10.5,22.6-22.4S545,2000.8,532.2,2000.8
		L532.2,2000.8z"/>
	<path class="st30" d="M513.4,2023.2c0,10.5,8.3,18.7,18.8,18.7s18.8-8.2,18.8-18.7c0-3-0.8-5.2-1.5-7.5h-33.9
		C514.2,2018,513.4,2021,513.4,2023.2z"/>
	<path class="st27" d="M613.5,2052.4c-11.3,0-20.3-17.9-20.3-29.2c0-11.2,9-20.2,20.3-20.2s20.3,9,20.3,20.2
		C633.8,2034.4,624.8,2052.4,613.5,2052.4z"/>
	<path class="st28" d="M613.5,2044.2c-11.3,0-20.3-9-20.3-20.2s9-20.2,20.3-20.2s20.3,9,20.3,20.2S624.8,2044.2,613.5,2044.2z"/>
	<path class="st29" d="M613.5,2005.3c10.5,0,18.8,8.2,18.8,18.7s-8.3,18.7-18.8,18.7s-18.8-8.2-18.8-18.7S603.7,2005.3,613.5,2005.3
		 M613.5,2000.8c-12.8,0-22.6,10.5-22.6,22.4c0,12.7,10.5,22.4,22.6,22.4c12.8,0,22.6-10.5,22.6-22.4S626.3,2000.8,613.5,2000.8
		L613.5,2000.8z"/>
	<path class="st30" d="M594.7,2023.2c0,10.5,8.3,18.7,18.8,18.7s18.8-8.2,18.8-18.7c0-3-0.8-5.2-1.5-7.5h-33.9
		C595.4,2018,594.7,2021,594.7,2023.2z"/>
	<path class="st24" d="M364.5,2077.8c0,2.2-2.3,4.5-4.5,4.5c-2.3,0-4.5-2.2-4.5-4.5s2.3-4.5,4.5-4.5S364.5,2074.8,364.5,2077.8z"/>
</g>
<g>
	<g>
		<g>
			<path class="st31" d="M1813.6,1631.7l6.9-6.9l0.1,0.1c2.7,2.7,3.4,6.7,2.1,10c-0.4,1-0.9,1.9-1.7,2.7l-10.1-3.2L1813.6,1631.7z"
				/>
			<path class="st31" d="M1810.2,1601.6l0.2,0.2c7.3,7.3,7.3,19.1,0,26.4l-2.3,2.3l-2.9,2.9l-27.5,0.7L1810.2,1601.6z"/>
		</g>
		<g>
			<path class="st32" d="M1818,1633.1c1.6,0.6,3.2,1.2,4.7,1.9c-0.4,1-0.9,1.9-1.7,2.7l-10.1-3.2l2.7-2.7
				C1815.1,1632.2,1816.6,1632.6,1818,1633.1z"/>
			<path class="st32" d="M1781.9,1629.9c3.7-0.6,7.6-0.9,11.6-0.9c5.1,0,10,0.5,14.7,1.4l-2.9,2.9l-27.5,0.7L1781.9,1629.9z"/>
		</g>
		<path class="st33" d="M1757.4,1641.9c5.6-3.3,11.9-5.9,18.9-7.5c1-0.2,1.9-0.4,2.9-0.6c4.6-0.9,9.4-1.3,14.3-1.3
			c8.8,0,17.1,1.5,24.5,4.1c4.2,1.5,8,3.3,11.6,5.4c-4.6,15.6-19,27-36.1,27c-6.2,0-12.1-1.5-17.2-4.2c-0.8-0.4-1.7-0.9-2.5-1.4
			c-6-3.7-10.8-9-14-15.3"/>
		<path class="st34" d="M1759.8,1648.1c32.4,24.2,58.2-1.3,58.2-11.6l0,0c4.2,1.5,8,3.3,11.6,5.4c-4.6,15.6-19,27-36.1,27
			C1778.7,1668.9,1766,1660.4,1759.8,1648.1"/>
		<circle class="st6" cx="1771.2" cy="1647.3" r="4.5"/>
		<path class="st35" d="M1769.4,1647.7c-0.2-0.7,0.2-1.5,0.9-1.9c0.7-0.4,1.5-0.3,2.1,0.2s0.8,1.3,0.5,2s-0.9,1.1-1.7,1.1
			C1770.3,1649.1,1769.6,1648.5,1769.4,1647.7z"/>
		<g>
			<path class="st34" d="M1786.7,1657.3c0-0.7,0.6-1.3,1.3-1.3c0.9,0,1.6-0.7,1.6-1.6s-0.7-1.6-1.6-1.6c-0.7,0-1.3-0.6-1.3-1.3
				s0.6-1.3,1.3-1.3c0.9,0,1.6-0.7,1.6-1.6s-0.7-1.6-1.6-1.6c-0.7,0-1.3-0.6-1.3-1.3s0.6-1.3,1.3-1.3c0.9,0,1.6-0.7,1.6-1.6
				s-0.7-1.6-1.6-1.6c-0.7,0-1.3-0.6-1.3-1.3s0.6-1.3,1.3-1.3c2.4,0,4.3,1.9,4.3,4.3c0,1.2-0.5,2.2-1.2,3c0.7,0.8,1.2,1.8,1.2,3
				s-0.5,2.2-1.2,3c0.7,0.8,1.2,1.8,1.2,3c0,2.4-1.9,4.3-4.3,4.3C1787.3,1658.6,1786.7,1658,1786.7,1657.3z"/>
			<path class="st34" d="M1796.1,1651.5c0-0.7,0.6-1.3,1.3-1.3c0.9,0,1.6-0.7,1.6-1.6s-0.7-1.6-1.6-1.6c-0.7,0-1.3-0.6-1.3-1.3
				s0.6-1.3,1.3-1.3c0.9,0,1.6-0.7,1.6-1.6s-0.7-1.6-1.6-1.6c-0.7,0-1.3-0.6-1.3-1.3c0-0.7,0.6-1.3,1.3-1.3c2.4,0,4.3,1.9,4.3,4.3
				c0,1.2-0.5,2.2-1.2,3c0.7,0.8,1.2,1.8,1.2,3c0,2.4-1.9,4.3-4.3,4.3C1796.7,1652.9,1796.1,1652.3,1796.1,1651.5z"/>
			<path class="st34" d="M1774.1,1663.1c4.3-4,6.8-9.6,6.8-15.5c0-4.6-1.5-9-4.3-12.7l-0.4-0.5c1-0.2,1.9-0.4,2.9-0.6
				c2.9,4,4.4,8.8,4.4,13.8c0,6.5-2.7,12.7-7.3,17.2c-0.8-0.4-1.7-0.9-2.5-1.4L1774.1,1663.1z"/>
		</g>
		<path class="st31" d="M1799.7,1658.8l-5,5c-1,1-1,2.7,0,3.7l2.9,2.9c4.7,4.7,12.4,4.7,17.1,0l0.1-0.1l-11.5-11.5
			C1802.3,1657.8,1800.7,1657.8,1799.7,1658.8z"/>
		<path class="st31" d="M1845.4,1621c-5.2-0.6-10.5,1.5-13.8,6c-3.4,4.4-3.9,10.1-2,14.9L1845.4,1621"/>
		<path class="st32" d="M1845.4,1662.8c-5.2,0.6-10.5-1.5-13.8-6c-3.4-4.4-3.9-10.1-2-14.9L1845.4,1662.8"/>
	</g>
	<g>
		<g>
			<path class="st31" d="M1746,1722l6.9-6.9l0.1,0.1c2.7,2.7,3.4,6.7,2.1,10c-0.4,1-0.9,1.9-1.7,2.7l-10.1-3.2L1746,1722z"/>
			<path class="st31" d="M1742.5,1691.8l0.2,0.2c7.3,7.3,7.3,19.1,0,26.4l-2.3,2.3l-2.9,2.9l-27.5,0.7L1742.5,1691.8z"/>
		</g>
		<g>
			<path class="st32" d="M1750.3,1723.4c1.6,0.6,3.2,1.2,4.7,1.9c-0.4,1-0.9,1.9-1.7,2.7l-10.1-3.2l2.7-2.7
				C1747.4,1722.4,1748.9,1722.9,1750.3,1723.4z"/>
			<path class="st32" d="M1714.2,1720.2c3.7-0.6,7.6-0.9,11.6-0.9c5.1,0,10,0.5,14.7,1.4l-2.9,2.9l-27.5,0.7L1714.2,1720.2z"/>
		</g>
		<path class="st33" d="M1689.7,1732.2c5.6-3.3,11.9-5.9,18.9-7.5c1-0.2,1.9-0.4,2.9-0.6c4.6-0.9,9.4-1.3,14.3-1.3
			c8.8,0,17.1,1.5,24.5,4.1c4.2,1.5,8,3.3,11.6,5.4c-4.6,15.6-19,27-36.1,27c-6.2,0-12.1-1.5-17.2-4.2c-0.8-0.4-1.7-0.9-2.5-1.4
			c-6-3.7-10.8-9-14-15.3"/>
		<path class="st34" d="M1692.1,1738.3c32.4,24.2,58.2-1.3,58.2-11.6l0,0c4.2,1.5,8,3.3,11.6,5.4c-4.6,15.6-19,27-36.1,27
			C1711,1759.2,1698.3,1750.7,1692.1,1738.3"/>
		<circle class="st6" cx="1703.5" cy="1737.6" r="4.5"/>
		<path class="st35" d="M1701.7,1737.9c-0.2-0.7,0.2-1.5,0.9-1.9c0.7-0.4,1.5-0.3,2.1,0.2s0.8,1.3,0.5,2s-0.9,1.1-1.7,1.1
			C1702.7,1739.4,1701.9,1738.7,1701.7,1737.9z"/>
		<g>
			<path class="st34" d="M1719,1747.5c0-0.7,0.6-1.3,1.3-1.3c0.9,0,1.6-0.7,1.6-1.6s-0.7-1.6-1.6-1.6c-0.7,0-1.3-0.6-1.3-1.3
				s0.6-1.3,1.3-1.3c0.9,0,1.6-0.7,1.6-1.6s-0.7-1.6-1.6-1.6c-0.7,0-1.3-0.6-1.3-1.3c0-0.7,0.6-1.3,1.3-1.3c0.9,0,1.6-0.7,1.6-1.6
				s-0.7-1.6-1.6-1.6c-0.7,0-1.3-0.6-1.3-1.3c0-0.7,0.6-1.3,1.3-1.3c2.4,0,4.3,1.9,4.3,4.3c0,1.2-0.5,2.2-1.2,3
				c0.7,0.8,1.2,1.8,1.2,3s-0.5,2.2-1.2,3c0.7,0.8,1.2,1.8,1.2,3c0,2.4-1.9,4.3-4.3,4.3C1719.7,1748.9,1719,1748.3,1719,1747.5z"/>
			<path class="st34" d="M1728.4,1741.8c0-0.7,0.6-1.3,1.3-1.3c0.9,0,1.6-0.7,1.6-1.6s-0.7-1.6-1.6-1.6c-0.7,0-1.3-0.6-1.3-1.3
				s0.6-1.3,1.3-1.3c0.9,0,1.6-0.7,1.6-1.6s-0.7-1.6-1.6-1.6c-0.7,0-1.3-0.6-1.3-1.3s0.6-1.3,1.3-1.3c2.4,0,4.3,1.9,4.3,4.3
				c0,1.2-0.5,2.2-1.2,3c0.7,0.8,1.2,1.8,1.2,3c0,2.4-1.9,4.3-4.3,4.3C1729,1743.1,1728.4,1742.5,1728.4,1741.8z"/>
			<path class="st34" d="M1706.4,1753.3c4.3-4,6.8-9.6,6.8-15.5c0-4.6-1.5-9-4.3-12.7l-0.4-0.5c1-0.2,1.9-0.4,2.9-0.6
				c2.9,4,4.4,8.8,4.4,13.8c0,6.5-2.7,12.7-7.3,17.2c-0.8-0.4-1.7-0.9-2.5-1.4L1706.4,1753.3z"/>
		</g>
		<path class="st31" d="M1732,1749.1l-5,5c-1,1-1,2.7,0,3.7l2.9,2.9c4.7,4.7,12.4,4.7,17.1,0l0.1-0.1l-11.5-11.5
			C1734.6,1748,1733,1748,1732,1749.1z"/>
		<path class="st31" d="M1777.7,1711.3c-5.2-0.6-10.5,1.5-13.8,6c-3.4,4.4-3.9,10.1-2,14.9L1777.7,1711.3"/>
		<path class="st32" d="M1777.7,1753.1c-5.2,0.6-10.5-1.5-13.8-6c-3.4-4.4-3.9-10.1-2-14.9L1777.7,1753.1"/>
	</g>
	<g>
		<g>
			<path class="st31" d="M1720.3,1559.3l6.9-6.9l0.1,0.1c2.7,2.7,3.4,6.7,2.1,10c-0.4,1-0.9,1.9-1.7,2.7l-10.1-3.2L1720.3,1559.3z"
				/>
			<path class="st31" d="M1716.9,1529.1l0.2,0.2c7.3,7.3,7.3,19.1,0,26.4l-2.3,2.3l-2.9,2.9l-27.5,0.7L1716.9,1529.1z"/>
		</g>
		<g>
			<path class="st32" d="M1724.6,1560.7c1.6,0.6,3.2,1.2,4.7,1.9c-0.4,1-0.9,1.9-1.7,2.7l-10.1-3.2l2.7-2.7
				C1721.8,1559.7,1723.2,1560.2,1724.6,1560.7z"/>
			<path class="st32" d="M1688.5,1557.5c3.7-0.6,7.6-0.9,11.6-0.9c5.1,0,10,0.5,14.7,1.4l-2.9,2.9l-27.5,0.7L1688.5,1557.5z"/>
		</g>
		<path class="st33" d="M1664,1569.5c5.6-3.3,11.9-5.9,18.9-7.5c1-0.2,1.9-0.4,2.9-0.6c4.6-0.9,9.4-1.3,14.3-1.3
			c8.8,0,17.1,1.5,24.5,4.1c4.2,1.5,8,3.3,11.6,5.4c-4.6,15.6-19,27-36.1,27c-6.2,0-12.1-1.5-17.2-4.2c-0.8-0.4-1.7-0.9-2.5-1.4
			c-6-3.7-10.8-9-14-15.3"/>
		<path class="st34" d="M1666.5,1575.7c32.4,24.2,58.2-1.3,58.2-11.6l0,0c4.2,1.5,8,3.3,11.6,5.4c-4.6,15.6-19,27-36.1,27
			C1685.4,1596.5,1672.6,1588,1666.5,1575.7"/>
		<circle class="st6" cx="1677.8" cy="1574.9" r="4.5"/>
		<path class="st35" d="M1676.1,1575.3c-0.2-0.7,0.2-1.5,0.9-1.9c0.7-0.4,1.5-0.3,2.1,0.2s0.8,1.3,0.5,2s-0.9,1.1-1.7,1.1
			C1677,1576.7,1676.2,1576.1,1676.1,1575.3z"/>
		<g>
			<path class="st34" d="M1693.4,1584.9c0-0.7,0.6-1.3,1.3-1.3c0.9,0,1.6-0.7,1.6-1.6s-0.7-1.6-1.6-1.6c-0.7,0-1.3-0.6-1.3-1.3
				c0-0.7,0.6-1.3,1.3-1.3c0.9,0,1.6-0.7,1.6-1.6s-0.7-1.6-1.6-1.6c-0.7,0-1.3-0.6-1.3-1.3c0-0.7,0.6-1.3,1.3-1.3
				c0.9,0,1.6-0.7,1.6-1.6s-0.7-1.6-1.6-1.6c-0.7,0-1.3-0.6-1.3-1.3s0.6-1.3,1.3-1.3c2.4,0,4.3,1.9,4.3,4.3c0,1.2-0.5,2.2-1.2,3
				c0.7,0.8,1.2,1.8,1.2,3s-0.5,2.2-1.2,3c0.7,0.8,1.2,1.8,1.2,3c0,2.4-1.9,4.3-4.3,4.3C1694,1586.2,1693.4,1585.6,1693.4,1584.9z"
				/>
			<path class="st34" d="M1702.7,1579.1c0-0.7,0.6-1.3,1.3-1.3c0.9,0,1.6-0.7,1.6-1.6s-0.7-1.6-1.6-1.6c-0.7,0-1.3-0.6-1.3-1.3
				s0.6-1.3,1.3-1.3c0.9,0,1.6-0.7,1.6-1.6s-0.7-1.6-1.6-1.6c-0.7,0-1.3-0.6-1.3-1.3s0.6-1.3,1.3-1.3c2.4,0,4.3,1.9,4.3,4.3
				c0,1.2-0.5,2.2-1.2,3c0.7,0.8,1.2,1.8,1.2,3c0,2.4-1.9,4.3-4.3,4.3C1703.3,1580.5,1702.7,1579.8,1702.7,1579.1z"/>
			<path class="st34" d="M1680.7,1590.7c4.3-4,6.8-9.6,6.8-15.5c0-4.6-1.5-9-4.3-12.7l-0.4-0.5c1-0.2,1.9-0.4,2.9-0.6
				c2.9,4,4.4,8.8,4.4,13.8c0,6.5-2.7,12.7-7.3,17.2c-0.8-0.4-1.7-0.9-2.5-1.4L1680.7,1590.7z"/>
		</g>
		<path class="st31" d="M1706.3,1586.4l-5,5c-1,1-1,2.7,0,3.7l2.9,2.9c4.7,4.7,12.4,4.7,17.1,0l0.1-0.1l-11.5-11.5
			C1709,1585.4,1707.3,1585.4,1706.3,1586.4z"/>
		<path class="st31" d="M1752,1548.6c-5.2-0.6-10.5,1.5-13.8,6c-3.4,4.4-3.9,10.1-2,14.9L1752,1548.6"/>
		<path class="st32" d="M1752,1590.4c-5.2,0.6-10.5-1.5-13.8-6c-3.4-4.4-3.9-10.1-2-14.9L1752,1590.4"/>
	</g>
	<g>
		<g>
			<path class="st31" d="M1637.2,1618.8l6.9-6.9l0.1,0.1c2.7,2.7,3.4,6.7,2.1,10c-0.4,1-0.9,1.9-1.7,2.7l-10.1-3.2L1637.2,1618.8z"
				/>
			<path class="st31" d="M1633.8,1588.6l0.2,0.2c7.3,7.3,7.3,19.1,0,26.4l-2.3,2.3l-2.9,2.9l-27.5,0.7L1633.8,1588.6z"/>
		</g>
		<g>
			<path class="st32" d="M1641.5,1620.2c1.6,0.6,3.2,1.2,4.7,1.9c-0.4,1-0.9,1.9-1.7,2.7l-10.1-3.2l2.7-2.7
				C1638.7,1619.2,1640.1,1619.7,1641.5,1620.2z"/>
			<path class="st32" d="M1605.4,1617c3.7-0.6,7.6-0.9,11.6-0.9c5.1,0,10,0.5,14.7,1.4l-2.9,2.9l-27.5,0.7L1605.4,1617z"/>
		</g>
		<path class="st33" d="M1580.9,1629c5.6-3.3,11.9-5.9,18.9-7.5c1-0.2,1.9-0.4,2.9-0.6c4.6-0.9,9.4-1.3,14.3-1.3
			c8.8,0,17.1,1.5,24.5,4.1c4.2,1.5,8,3.3,11.6,5.4c-4.6,15.6-19,27-36.1,27c-6.2,0-12.1-1.5-17.2-4.2c-0.8-0.4-1.7-0.9-2.5-1.4
			c-6-3.7-10.8-9-14-15.3"/>
		<path class="st34" d="M1583.3,1635.2c32.4,24.2,58.2-1.3,58.2-11.6l0,0c4.2,1.5,8,3.3,11.6,5.4c-4.6,15.6-19,27-36.1,27
			C1602.3,1656,1589.5,1647.5,1583.3,1635.2"/>
		<circle class="st6" cx="1594.7" cy="1634.4" r="4.5"/>
		<path class="st35" d="M1593,1634.7c-0.2-0.7,0.2-1.5,0.9-1.9c0.7-0.4,1.5-0.3,2.1,0.2s0.8,1.3,0.5,2s-0.9,1.1-1.7,1.1
			C1593.9,1636.2,1593.1,1635.6,1593,1634.7z"/>
		<g>
			<path class="st34" d="M1610.3,1644.4c0-0.7,0.6-1.3,1.3-1.3c0.9,0,1.6-0.7,1.6-1.6s-0.7-1.6-1.6-1.6c-0.7,0-1.3-0.6-1.3-1.3
				c0-0.7,0.6-1.3,1.3-1.3c0.9,0,1.6-0.7,1.6-1.6s-0.7-1.6-1.6-1.6c-0.7,0-1.3-0.6-1.3-1.3s0.6-1.3,1.3-1.3c0.9,0,1.6-0.7,1.6-1.6
				s-0.7-1.6-1.6-1.6c-0.7,0-1.3-0.6-1.3-1.3s0.6-1.3,1.3-1.3c2.4,0,4.3,1.9,4.3,4.3c0,1.2-0.5,2.2-1.2,3c0.7,0.8,1.2,1.8,1.2,3
				s-0.5,2.2-1.2,3c0.7,0.8,1.2,1.8,1.2,3c0,2.4-1.9,4.3-4.3,4.3C1610.9,1645.7,1610.3,1645.1,1610.3,1644.4z"/>
			<path class="st34" d="M1619.6,1638.6c0-0.7,0.6-1.3,1.3-1.3c0.9,0,1.6-0.7,1.6-1.6s-0.7-1.6-1.6-1.6c-0.7,0-1.3-0.6-1.3-1.3
				s0.6-1.3,1.3-1.3c0.9,0,1.6-0.7,1.6-1.6s-0.7-1.6-1.6-1.6c-0.7,0-1.3-0.6-1.3-1.3s0.6-1.3,1.3-1.3c2.4,0,4.3,1.9,4.3,4.3
				c0,1.2-0.5,2.2-1.2,3c0.7,0.8,1.2,1.8,1.2,3c0,2.4-1.9,4.3-4.3,4.3C1620.2,1639.9,1619.6,1639.3,1619.6,1638.6z"/>
			<path class="st34" d="M1597.6,1650.2c4.3-4,6.8-9.6,6.8-15.5c0-4.6-1.5-9-4.3-12.7l-0.4-0.5c1-0.2,1.9-0.4,2.9-0.6
				c2.9,4,4.4,8.8,4.4,13.8c0,6.5-2.7,12.7-7.3,17.2c-0.8-0.4-1.7-0.9-2.5-1.4L1597.6,1650.2z"/>
		</g>
		<path class="st31" d="M1623.2,1645.9l-5,5c-1,1-1,2.7,0,3.7l2.9,2.9c4.7,4.7,12.4,4.7,17.1,0l0.1-0.1l-11.5-11.5
			C1625.9,1644.9,1624.2,1644.9,1623.2,1645.9z"/>
		<path class="st31" d="M1668.9,1608.1c-5.2-0.6-10.5,1.5-13.8,6c-3.4,4.4-3.9,10.1-2,14.9L1668.9,1608.1"/>
		<path class="st32" d="M1668.9,1649.9c-5.2,0.6-10.5-1.5-13.8-6c-3.4-4.4-3.9-10.1-2-14.9L1668.9,1649.9"/>
	</g>
	<g>
		<g>
			<path class="st31" d="M1623.6,1742.3l6.9-6.9l0.1,0.1c2.7,2.7,3.4,6.7,2.1,10c-0.4,1-0.9,1.9-1.7,2.7l-10.1-3.2L1623.6,1742.3z"
				/>
			<path class="st31" d="M1620.2,1712.1l0.2,0.2c7.3,7.3,7.3,19.1,0,26.4l-2.3,2.3l-2.9,2.9l-27.5,0.7L1620.2,1712.1z"/>
		</g>
		<g>
			<path class="st32" d="M1628,1743.6c1.6,0.6,3.2,1.2,4.7,1.9c-0.4,1-0.9,1.9-1.7,2.7l-10.1-3.2l2.7-2.7
				C1625.1,1742.7,1626.6,1743.1,1628,1743.6z"/>
			<path class="st32" d="M1591.9,1740.4c3.7-0.6,7.6-0.9,11.6-0.9c5.1,0,10,0.5,14.7,1.4l-2.9,2.9l-27.5,0.7L1591.9,1740.4z"/>
		</g>
		<path class="st33" d="M1567.4,1752.4c5.6-3.3,11.9-5.9,18.9-7.5c1-0.2,1.9-0.4,2.9-0.6c4.6-0.9,9.4-1.3,14.3-1.3
			c8.8,0,17.1,1.5,24.5,4.1c4.2,1.5,8,3.3,11.6,5.4c-4.6,15.6-19,27-36.1,27c-6.2,0-12.1-1.5-17.2-4.2c-0.8-0.4-1.7-0.9-2.5-1.4
			c-6-3.7-10.8-9-14-15.3"/>
		<path class="st34" d="M1569.8,1758.6c32.4,24.2,58.2-1.3,58.2-11.6l0,0c4.2,1.5,8,3.3,11.6,5.4c-4.6,15.6-19,27-36.1,27
			C1588.7,1779.5,1576,1771,1569.8,1758.6"/>
		<circle class="st6" cx="1581.2" cy="1757.9" r="4.5"/>
		<path class="st35" d="M1579.4,1758.2c-0.2-0.7,0.2-1.5,0.9-1.9c0.7-0.4,1.5-0.3,2.1,0.2s0.8,1.3,0.5,2s-0.9,1.1-1.7,1.1
			C1580.3,1759.6,1579.6,1759,1579.4,1758.2z"/>
		<g>
			<path class="st34" d="M1596.7,1767.8c0-0.7,0.6-1.3,1.3-1.3c0.9,0,1.6-0.7,1.6-1.6s-0.7-1.6-1.6-1.6c-0.7,0-1.3-0.6-1.3-1.3
				c0-0.7,0.6-1.3,1.3-1.3c0.9,0,1.6-0.7,1.6-1.6s-0.7-1.6-1.6-1.6c-0.7,0-1.3-0.6-1.3-1.3s0.6-1.3,1.3-1.3c0.9,0,1.6-0.7,1.6-1.6
				s-0.7-1.6-1.6-1.6c-0.7,0-1.3-0.6-1.3-1.3s0.6-1.3,1.3-1.3c2.4,0,4.3,1.9,4.3,4.3c0,1.2-0.5,2.2-1.2,3c0.7,0.8,1.2,1.8,1.2,3
				s-0.5,2.2-1.2,3c0.7,0.8,1.2,1.8,1.2,3c0,2.4-1.9,4.3-4.3,4.3C1597.3,1769.2,1596.7,1768.6,1596.7,1767.8z"/>
			<path class="st34" d="M1606.1,1762c0-0.7,0.6-1.3,1.3-1.3c0.9,0,1.6-0.7,1.6-1.6s-0.7-1.6-1.6-1.6c-0.7,0-1.3-0.6-1.3-1.3
				s0.6-1.3,1.3-1.3c0.9,0,1.6-0.7,1.6-1.6s-0.7-1.6-1.6-1.6c-0.7,0-1.3-0.6-1.3-1.3s0.6-1.3,1.3-1.3c2.4,0,4.3,1.9,4.3,4.3
				c0,1.2-0.5,2.2-1.2,3c0.7,0.8,1.2,1.8,1.2,3c0,2.4-1.9,4.3-4.3,4.3C1606.7,1763.4,1606.1,1762.8,1606.1,1762z"/>
			<path class="st34" d="M1584.1,1773.6c4.3-4,6.8-9.6,6.8-15.5c0-4.6-1.5-9-4.3-12.7l-0.4-0.5c1-0.2,1.9-0.4,2.9-0.6
				c2.9,4,4.4,8.8,4.4,13.8c0,6.5-2.7,12.7-7.3,17.2c-0.8-0.4-1.7-0.9-2.5-1.4L1584.1,1773.6z"/>
		</g>
		<path class="st31" d="M1609.7,1769.3l-5,5c-1,1-1,2.7,0,3.7l2.9,2.9c4.7,4.7,12.4,4.7,17.1,0l0.1-0.1l-11.5-11.5
			C1612.3,1768.3,1610.7,1768.3,1609.7,1769.3z"/>
		<path class="st31" d="M1655.4,1731.6c-5.2-0.6-10.5,1.5-13.8,6c-3.4,4.4-3.9,10.1-2,14.9L1655.4,1731.6"/>
		<path class="st32" d="M1655.4,1773.3c-5.2,0.6-10.5-1.5-13.8-6c-3.4-4.4-3.9-10.1-2-14.9L1655.4,1773.3"/>
	</g>
	<g>
		<g>
			<path class="st31" d="M1583.8,1523.1l6.9-6.9l0.1,0.1c2.7,2.7,3.4,6.7,2.1,10c-0.4,1-0.9,1.9-1.7,2.7l-10.1-3.2L1583.8,1523.1z"
				/>
			<path class="st31" d="M1580.4,1492.9l0.2,0.2c7.3,7.3,7.3,19.1,0,26.4l-2.3,2.3l-2.9,2.9l-27.5,0.7L1580.4,1492.9z"/>
		</g>
		<g>
			<path class="st32" d="M1588.2,1524.5c1.6,0.6,3.2,1.2,4.7,1.9c-0.4,1-0.9,1.9-1.7,2.7l-10.1-3.2l2.7-2.7
				C1585.3,1523.5,1586.8,1524,1588.2,1524.5z"/>
			<path class="st32" d="M1552.1,1521.3c3.7-0.6,7.6-0.9,11.6-0.9c5.1,0,10,0.5,14.7,1.4l-2.9,2.9l-27.5,0.7L1552.1,1521.3z"/>
		</g>
		<path class="st33" d="M1527.6,1533.3c5.6-3.3,11.9-5.9,18.9-7.5c1-0.2,1.9-0.4,2.9-0.6c4.6-0.9,9.4-1.3,14.3-1.3
			c8.8,0,17.1,1.5,24.5,4.1c4.2,1.5,8,3.3,11.6,5.4c-4.6,15.6-19,27-36.1,27c-6.2,0-12.1-1.5-17.2-4.2c-0.8-0.4-1.7-0.9-2.5-1.4
			c-6-3.7-10.8-9-14-15.3"/>
		<path class="st34" d="M1530,1539.5c32.4,24.2,58.2-1.3,58.2-11.6l0,0c4.2,1.5,8,3.3,11.6,5.4c-4.6,15.6-19,27-36.1,27
			C1548.9,1560.3,1536.2,1551.8,1530,1539.5"/>
		<circle class="st6" cx="1541.4" cy="1538.7" r="4.5"/>
		<path class="st35" d="M1539.6,1539.1c-0.2-0.7,0.2-1.5,0.9-1.9c0.7-0.4,1.5-0.3,2.1,0.2s0.8,1.3,0.5,2s-0.9,1.1-1.7,1.1
			C1540.5,1540.5,1539.8,1539.9,1539.6,1539.1z"/>
		<g>
			<path class="st34" d="M1556.9,1548.7c0-0.7,0.6-1.3,1.3-1.3c0.9,0,1.6-0.7,1.6-1.6s-0.7-1.6-1.6-1.6c-0.7,0-1.3-0.6-1.3-1.3
				s0.6-1.3,1.3-1.3c0.9,0,1.6-0.7,1.6-1.6s-0.7-1.6-1.6-1.6c-0.7,0-1.3-0.6-1.3-1.3s0.6-1.3,1.3-1.3c0.9,0,1.6-0.7,1.6-1.6
				s-0.7-1.6-1.6-1.6c-0.7,0-1.3-0.6-1.3-1.3s0.6-1.3,1.3-1.3c2.4,0,4.3,1.9,4.3,4.3c0,1.2-0.5,2.2-1.2,3c0.7,0.8,1.2,1.8,1.2,3
				s-0.5,2.2-1.2,3c0.7,0.8,1.2,1.8,1.2,3c0,2.4-1.9,4.3-4.3,4.3C1557.5,1550,1556.9,1549.4,1556.9,1548.7z"/>
			<path class="st34" d="M1566.3,1542.9c0-0.7,0.6-1.3,1.3-1.3c0.9,0,1.6-0.7,1.6-1.6s-0.7-1.6-1.6-1.6c-0.7,0-1.3-0.6-1.3-1.3
				s0.6-1.3,1.3-1.3c0.9,0,1.6-0.7,1.6-1.6s-0.7-1.6-1.6-1.6c-0.7,0-1.3-0.6-1.3-1.3c0-0.7,0.6-1.3,1.3-1.3c2.4,0,4.3,1.9,4.3,4.3
				c0,1.2-0.5,2.2-1.2,3c0.7,0.8,1.2,1.8,1.2,3c0,2.4-1.9,4.3-4.3,4.3C1566.9,1544.2,1566.3,1543.6,1566.3,1542.9z"/>
			<path class="st34" d="M1544.3,1554.5c4.3-4,6.8-9.6,6.8-15.5c0-4.6-1.5-9-4.3-12.7l-0.4-0.5c1-0.2,1.9-0.4,2.9-0.6
				c2.9,4,4.4,8.8,4.4,13.8c0,6.5-2.7,12.7-7.3,17.2c-0.8-0.4-1.7-0.9-2.5-1.4L1544.3,1554.5z"/>
		</g>
		<path class="st31" d="M1569.9,1550.2l-5,5c-1,1-1,2.7,0,3.7l2.9,2.9c4.7,4.7,12.4,4.7,17.1,0l0.1-0.1l-11.5-11.5
			C1572.5,1549.2,1570.9,1549.2,1569.9,1550.2z"/>
		<path class="st31" d="M1615.6,1512.4c-5.2-0.6-10.5,1.5-13.8,6c-3.4,4.4-3.9,10.1-2,14.9L1615.6,1512.4"/>
		<path class="st32" d="M1615.6,1554.2c-5.2,0.6-10.5-1.5-13.8-6c-3.4-4.4-3.9-10.1-2-14.9L1615.6,1554.2"/>
	</g>
	<g>
		<g>
			<path class="st31" d="M1531.4,1671.4l6.9-6.9l0.1,0.1c2.7,2.7,3.4,6.7,2.1,10c-0.4,1-0.9,1.9-1.7,2.7l-10.1-3.2L1531.4,1671.4z"
				/>
			<path class="st31" d="M1528,1641.2l0.2,0.2c7.3,7.3,7.3,19.1,0,26.4l-2.3,2.3l-2.9,2.9l-27.5,0.7L1528,1641.2z"/>
		</g>
		<g>
			<path class="st32" d="M1535.7,1672.8c1.6,0.6,3.2,1.2,4.7,1.9c-0.4,1-0.9,1.9-1.7,2.7l-10.1-3.2l2.7-2.7
				C1532.9,1671.8,1534.3,1672.3,1535.7,1672.8z"/>
			<path class="st32" d="M1499.6,1669.6c3.7-0.6,7.6-0.9,11.6-0.9c5.1,0,10,0.5,14.7,1.4l-2.9,2.9l-27.5,0.7L1499.6,1669.6z"/>
		</g>
		<path class="st33" d="M1475.1,1681.6c5.6-3.3,11.9-5.9,18.9-7.5c1-0.2,1.9-0.4,2.9-0.6c4.6-0.9,9.4-1.3,14.3-1.3
			c8.8,0,17.1,1.5,24.5,4.1c4.2,1.5,8,3.3,11.6,5.4c-4.6,15.6-19,27-36.1,27c-6.2,0-12.1-1.5-17.2-4.2c-0.8-0.4-1.7-0.9-2.5-1.4
			c-6-3.7-10.8-9-14-15.3"/>
		<path class="st34" d="M1477.5,1687.8c32.4,24.2,58.2-1.3,58.2-11.6l0,0c4.2,1.5,8,3.3,11.6,5.4c-4.6,15.6-19,27-36.1,27
			C1496.5,1708.6,1483.7,1700.1,1477.5,1687.8"/>
		<circle class="st6" cx="1488.9" cy="1687" r="4.5"/>
		<path class="st35" d="M1487.2,1687.3c-0.2-0.7,0.2-1.5,0.9-1.9c0.7-0.4,1.5-0.3,2.1,0.2s0.8,1.3,0.5,2s-0.9,1.1-1.7,1.1
			C1488.1,1688.8,1487.3,1688.2,1487.2,1687.3z"/>
		<g>
			<path class="st34" d="M1504.5,1697c0-0.7,0.6-1.3,1.3-1.3c0.9,0,1.6-0.7,1.6-1.6s-0.7-1.6-1.6-1.6c-0.7,0-1.3-0.6-1.3-1.3
				s0.6-1.3,1.3-1.3c0.9,0,1.6-0.7,1.6-1.6s-0.7-1.6-1.6-1.6c-0.7,0-1.3-0.6-1.3-1.3c0-0.7,0.6-1.3,1.3-1.3c0.9,0,1.6-0.7,1.6-1.6
				s-0.7-1.6-1.6-1.6c-0.7,0-1.3-0.6-1.3-1.3c0-0.7,0.6-1.3,1.3-1.3c2.4,0,4.3,1.9,4.3,4.3c0,1.2-0.5,2.2-1.2,3
				c0.7,0.8,1.2,1.8,1.2,3s-0.5,2.2-1.2,3c0.7,0.8,1.2,1.8,1.2,3c0,2.4-1.9,4.3-4.3,4.3C1505.1,1698.3,1504.5,1697.7,1504.5,1697z"
				/>
			<path class="st34" d="M1513.8,1691.2c0-0.7,0.6-1.3,1.3-1.3c0.9,0,1.6-0.7,1.6-1.6s-0.7-1.6-1.6-1.6c-0.7,0-1.3-0.6-1.3-1.3
				s0.6-1.3,1.3-1.3c0.9,0,1.6-0.7,1.6-1.6s-0.7-1.6-1.6-1.6c-0.7,0-1.3-0.6-1.3-1.3s0.6-1.3,1.3-1.3c2.4,0,4.3,1.9,4.3,4.3
				c0,1.2-0.5,2.2-1.2,3c0.7,0.8,1.2,1.8,1.2,3c0,2.4-1.9,4.3-4.3,4.3C1514.4,1692.5,1513.8,1691.9,1513.8,1691.2z"/>
			<path class="st34" d="M1491.8,1702.8c4.3-4,6.8-9.6,6.8-15.5c0-4.6-1.5-9-4.3-12.7l-0.4-0.5c1-0.2,1.9-0.4,2.9-0.6
				c2.9,4,4.4,8.8,4.4,13.8c0,6.5-2.7,12.7-7.3,17.2c-0.8-0.4-1.7-0.9-2.5-1.4L1491.8,1702.8z"/>
		</g>
		<path class="st31" d="M1517.4,1698.5l-5,5c-1,1-1,2.7,0,3.7l2.9,2.9c4.7,4.7,12.4,4.7,17.1,0l0.1-0.1l-11.5-11.5
			C1520.1,1697.5,1518.4,1697.5,1517.4,1698.5z"/>
		<path class="st31" d="M1563.1,1660.7c-5.2-0.6-10.5,1.5-13.8,6c-3.4,4.4-3.9,10.1-2,14.9L1563.1,1660.7"/>
		<path class="st32" d="M1563.1,1702.5c-5.2,0.6-10.5-1.5-13.8-6c-3.4-4.4-3.9-10.1-2-14.9L1563.1,1702.5"/>
	</g>
	<g>
		<g>
			<path class="st31" d="M1711.4,1665.1l6.9-6.9l0.1,0.1c2.7,2.7,3.4,6.7,2.1,10c-0.4,1-0.9,1.9-1.7,2.7l-10.1-3.2L1711.4,1665.1z"
				/>
			<path class="st31" d="M1707.9,1634.9l0.2,0.2c7.3,7.3,7.3,19.1,0,26.4l-2.3,2.3l-2.9,2.9l-27.5,0.7L1707.9,1634.9z"/>
		</g>
		<g>
			<path class="st32" d="M1715.7,1666.4c1.6,0.6,3.2,1.2,4.7,1.9c-0.4,1-0.9,1.9-1.7,2.7l-10.1-3.2l2.7-2.7
				C1712.8,1665.5,1714.3,1665.9,1715.7,1666.4z"/>
			<path class="st32" d="M1679.6,1663.2c3.7-0.6,7.6-0.9,11.6-0.9c5.1,0,10,0.5,14.7,1.4l-2.9,2.9l-27.5,0.7L1679.6,1663.2z"/>
		</g>
		<path class="st33" d="M1655.1,1675.2c5.6-3.3,11.9-5.9,18.9-7.5c1-0.2,1.9-0.4,2.9-0.6c4.6-0.9,9.4-1.3,14.3-1.3
			c8.8,0,17.1,1.5,24.5,4.1c4.2,1.5,8,3.3,11.6,5.4c-4.6,15.6-19,27-36.1,27c-6.2,0-12.1-1.5-17.2-4.2c-0.8-0.4-1.7-0.9-2.5-1.4
			c-6-3.7-10.8-9-14-15.3"/>
		<path class="st34" d="M1657.5,1681.4c32.4,24.2,58.2-1.3,58.2-11.6l0,0c4.2,1.5,8,3.3,11.6,5.4c-4.6,15.6-19,27-36.1,27
			C1676.4,1702.3,1663.7,1693.8,1657.5,1681.4"/>
		<circle class="st6" cx="1668.9" cy="1680.7" r="4.5"/>
		<path class="st35" d="M1667.1,1681c-0.2-0.7,0.2-1.5,0.9-1.9c0.7-0.4,1.5-0.3,2.1,0.2s0.8,1.3,0.5,2s-0.9,1.1-1.7,1.1
			C1668,1682.4,1667.3,1681.8,1667.1,1681z"/>
		<g>
			<path class="st34" d="M1684.4,1690.6c0-0.7,0.6-1.3,1.3-1.3c0.9,0,1.6-0.7,1.6-1.6s-0.7-1.6-1.6-1.6c-0.7,0-1.3-0.6-1.3-1.3
				c0-0.7,0.6-1.3,1.3-1.3c0.9,0,1.6-0.7,1.6-1.6s-0.7-1.6-1.6-1.6c-0.7,0-1.3-0.6-1.3-1.3c0-0.7,0.6-1.3,1.3-1.3
				c0.9,0,1.6-0.7,1.6-1.6s-0.7-1.6-1.6-1.6c-0.7,0-1.3-0.6-1.3-1.3s0.6-1.3,1.3-1.3c2.4,0,4.3,1.9,4.3,4.3c0,1.2-0.5,2.2-1.2,3
				c0.7,0.8,1.2,1.8,1.2,3s-0.5,2.2-1.2,3c0.7,0.8,1.2,1.8,1.2,3c0,2.4-1.9,4.3-4.3,4.3C1685,1692,1684.4,1691.4,1684.4,1690.6z"/>
			<path class="st34" d="M1693.8,1684.8c0-0.7,0.6-1.3,1.3-1.3c0.9,0,1.6-0.7,1.6-1.6s-0.7-1.6-1.6-1.6c-0.7,0-1.3-0.6-1.3-1.3
				s0.6-1.3,1.3-1.3c0.9,0,1.6-0.7,1.6-1.6s-0.7-1.6-1.6-1.6c-0.7,0-1.3-0.6-1.3-1.3s0.6-1.3,1.3-1.3c2.4,0,4.3,1.9,4.3,4.3
				c0,1.2-0.5,2.2-1.2,3c0.7,0.8,1.2,1.8,1.2,3c0,2.4-1.9,4.3-4.3,4.3C1694.4,1686.2,1693.8,1685.6,1693.8,1684.8z"/>
			<path class="st34" d="M1671.8,1696.4c4.3-4,6.8-9.6,6.8-15.5c0-4.6-1.5-9-4.3-12.7l-0.4-0.5c1-0.2,1.9-0.4,2.9-0.6
				c2.9,4,4.4,8.8,4.4,13.8c0,6.5-2.7,12.7-7.3,17.2c-0.8-0.4-1.7-0.9-2.5-1.4L1671.8,1696.4z"/>
		</g>
		<path class="st31" d="M1697.4,1692.1l-5,5c-1,1-1,2.7,0,3.7l2.9,2.9c4.7,4.7,12.4,4.7,17.1,0l0.1-0.1l-11.5-11.5
			C1700,1691.1,1698.4,1691.1,1697.4,1692.1z"/>
		<path class="st31" d="M1743.1,1654.4c-5.2-0.6-10.5,1.5-13.8,6c-3.4,4.4-3.9,10.1-2,14.9L1743.1,1654.4"/>
		<path class="st32" d="M1743.1,1696.1c-5.2,0.6-10.5-1.5-13.8-6c-3.4-4.4-3.9-10.1-2-14.9L1743.1,1696.1"/>
	</g>
</g>
<g>
	<path class="st36" d="M1699,2438.7l11.7,23.5c1.4,2.7,3.6,5,6.3,6.3c4.4,2.2,9.5,2,13.7-0.5s6.7-7,6.8-11.8L1699,2438.7z"/>
	<path class="st37" d="M1750.2,2362.5l47.6,51.6l3.8-42.6c0.4-4.8-1.3-9.6-4.7-12.9c-4-4-9.6-5.6-15.1-4.4L1750.2,2362.5z"/>
	<path class="st36" d="M1745.7,2462.3l1.9,1.6c5.2,6.8,13,10.5,20.9,10.5c5,0,10-1.5,14.5-4.4c6.6-4.4,10.8-11.5,11.5-19.4l2.2-23.9
		L1745.7,2462.3z"/>
	<path class="st37" d="M1797,2408.3c4.6-2.8,9.8-6.5,13.2-10.7l6.1-7.7c1.2-1.6,3.4-2.1,5.1-1.3c1.8,0.9,2.8,2.8,2.5,4.7l-4.2,25.1
		l-4.4,26.5c-0.3,1.8-1.6,3.2-3.4,3.5s-3.5-0.4-4.5-2l-6.2-9.9c-1.3-2.2-2.9-4.3-4.7-6.1l-5.3-12.1l-1.9-4.3L1797,2408.3z"/>
	<path class="st36" d="M1815.3,2444.9c-0.3,1.8-1.6,3.2-3.4,3.5s-3.5-0.4-4.5-2l-6.2-9.9c-1.3-2.2-2.9-4.3-4.7-6.1l-5.3-12.1h28.5
		L1815.3,2444.9z"/>
	<path class="st38" d="M1683.2,2407.1c10.8-1.1,19.7-15.9,22.2-21.8c7.9-15.8,20.6-20.9,31.4-22.4l4.5,27.1
		c-1.5,9.4-2,18.9-1.7,28.3c0.2,6.5,0.8,13.2,1.7,19.7l-5.3,22.3c-9.6-2.5-19.3-6.9-27.9-13c-5.2-3.5-8-7.2-10.7-10.4
		c-3.6-4.5-6.6-7.8-14.6-9.9c-3.6-0.9-5.9-4.3-6.1-8.7c-0.1-0.7-0.1-1.5,0-2.2C1677.1,2411,1679.7,2407.5,1683.2,2407.1z"/>
	<path class="st37" d="M1676.8,2418.4h62.8c0.2,6.5,0.8,13.2,1.7,19.7l-5.3,22.3c-9.6-2.5-19.3-6.9-27.9-13
		c-5.2-3.5-8-7.2-10.7-10.4c-3.6-4.5-6.6-7.8-14.6-9.9C1679.3,2426.2,1677,2422.8,1676.8,2418.4L1676.8,2418.4z"/>
	<circle class="st39" cx="1716.1" cy="2409.8" r="4.3"/>
	<path class="st40" d="M1732.9,2388.8l4-25.8c4.8-0.6,8.9-0.6,13.4-0.4c2.3,0.1,2.9,0.1,3.8,0.1l4.5,27.5c-1.5,9.4-2,18.9-1.7,28.3
		c0.2,6.5,0.8,13.2,1.7,19.7l-4.9,24.5c-2.6,0-5.2-0.1-7.9-0.4c-0.5,0-4.8-0.6-9.6-1.8l-3.2-21c-1-7-1.7-14-1.9-21
		C1730.7,2408.5,1731.3,2398.6,1732.9,2388.8z"/>
	<path class="st41" d="M1731,2418.4h25.8c0.2,6.5,0.8,13.2,1.7,19.7l-4.9,24.5c-2.6,0-5.2-0.1-7.9-0.4c-0.5,0-4.8-0.6-9.6-1.8
		l-3.2-21C1731.8,2432.5,1731.1,2425.4,1731,2418.4L1731,2418.4z"/>
	<path class="st38" d="M1750.1,2388.8l4-26.2c4.6-0.1,9.7-0.3,16.9,2.6l4.8,24.9c-1.5,9.4-2,18.9-1.7,28.3
		c0.2,6.5,0.8,13.2,1.7,19.7l-5.3,21.8c-5.3,1.9-11.1,2.8-16.8,2.8l-3.5-23.3c-1-7-1.7-14-1.9-21
		C1747.9,2408.5,1748.5,2398.6,1750.1,2388.8z"/>
	<path class="st37" d="M1775.7,2438.1l-5.3,21.8c-5.3,1.9-11.1,2.8-16.8,2.8l-3.5-23.3c-1-7-1.7-14-1.9-21h25.8
		C1774.2,2425,1774.8,2431.6,1775.7,2438.1z"/>
	<path class="st40" d="M1767.3,2388.8l3.6-23.6c18.2,7.6,27,28.8,27,48.9v0.5c0,1.3,0,2.6-0.2,3.8c-0.1,2.9-0.4,5.7-0.9,8.3
		c-2.8,15.8-11.4,27.9-26.4,33.2l-3.1-20.5c-1-7-1.7-14-1.9-21C1765.1,2408.5,1765.8,2398.6,1767.3,2388.8z"/>
	<path class="st41" d="M1796.8,2426.7c-2.8,15.8-11.4,27.9-26.4,33.2l-3.1-20.5c-1-7-1.7-14-1.9-21h32.3
		C1797.6,2421.4,1797.3,2424.1,1796.8,2426.7z"/>
</g>
<g>
	<g>
		<g>
			<path class="st31" d="M36.2,2291.6l-10.1,3.2c-0.7-0.8-1.3-1.7-1.7-2.7c-1.3-3.3-0.7-7.3,2.1-10l0.1-0.1l6.9,6.9L36.2,2291.6z"/>
			<path class="st31" d="M69.4,2291.3l-27.5-0.7l-2.9-2.9l-2.3-2.3c-7.3-7.3-7.3-19.1,0-26.4l0.2-0.2L69.4,2291.3z"/>
		</g>
		<g>
			<path class="st32" d="M33.5,2288.9l2.7,2.7l-10.1,3.2c-0.7-0.8-1.3-1.7-1.7-2.7c1.5-0.7,3.1-1.3,4.7-1.9
				C30.6,2289.8,32,2289.3,33.5,2288.9z"/>
			<path class="st32" d="M69.4,2291.3l-27.5-0.7l-2.9-2.9c4.7-0.9,9.6-1.4,14.7-1.4c4,0,7.9,0.3,11.6,0.9L69.4,2291.3z"/>
		</g>
		<path class="st33" d="M87.3,2305.3c-3.1,6.3-8,11.6-14,15.3c-0.8,0.5-1.6,1-2.5,1.4c-5.2,2.7-11,4.2-17.2,4.2
			c-17.1,0-31.5-11.4-36.1-27c3.6-2.1,7.4-3.9,11.6-5.4c7.4-2.6,15.7-4.1,24.5-4.1c4.9,0,9.7,0.5,14.3,1.3c1,0.2,1.9,0.4,2.9,0.6
			c6.9,1.6,13.3,4.2,18.9,7.5"/>
		<path class="st34" d="M87.3,2305.3c-6.2,12.3-18.9,20.8-33.7,20.8c-17.1,0-31.5-11.4-36.1-27c3.6-2.1,7.4-3.9,11.6-5.4l0,0
			C29.2,2304,54.9,2329.4,87.3,2305.3"/>
		<circle class="st6" cx="76" cy="2304.5" r="4.5"/>
		<path class="st35" d="M76,2306.3c-0.7,0-1.4-0.5-1.7-1.1c-0.3-0.7-0.1-1.5,0.5-2s1.4-0.6,2.1-0.2c0.7,0.4,1,1.2,0.9,1.9
			C77.5,2305.7,76.8,2306.3,76,2306.3z"/>
		<g>
			<path class="st34" d="M59.1,2315.8c-2.4,0-4.3-1.9-4.3-4.3c0-1.2,0.5-2.2,1.2-3c-0.7-0.8-1.2-1.8-1.2-3s0.5-2.2,1.2-3
				c-0.7-0.8-1.2-1.8-1.2-3c0-2.4,1.9-4.3,4.3-4.3c0.7,0,1.3,0.6,1.3,1.3s-0.6,1.3-1.3,1.3c-0.9,0-1.6,0.7-1.6,1.6
				c0,0.9,0.7,1.6,1.6,1.6c0.7,0,1.3,0.6,1.3,1.3s-0.6,1.3-1.3,1.3c-0.9,0-1.6,0.7-1.6,1.6c0,0.9,0.7,1.6,1.6,1.6
				c0.7,0,1.3,0.6,1.3,1.3s-0.6,1.3-1.3,1.3c-0.9,0-1.6,0.7-1.6,1.6c0,0.9,0.7,1.6,1.6,1.6c0.7,0,1.3,0.6,1.3,1.3
				S59.8,2315.8,59.1,2315.8z"/>
			<path class="st34" d="M49.7,2310c-2.4,0-4.3-1.9-4.3-4.3c0-1.2,0.5-2.2,1.2-3c-0.7-0.8-1.2-1.8-1.2-3c0-2.4,1.9-4.3,4.3-4.3
				c0.7,0,1.3,0.6,1.3,1.3s-0.6,1.3-1.3,1.3c-0.9,0-1.6,0.7-1.6,1.6c0,0.9,0.7,1.6,1.6,1.6c0.7,0,1.3,0.6,1.3,1.3s-0.6,1.3-1.3,1.3
				c-0.9,0-1.6,0.7-1.6,1.6c0,0.9,0.7,1.6,1.6,1.6c0.7,0,1.3,0.6,1.3,1.3S50.5,2310,49.7,2310z"/>
			<path class="st34" d="M73.4,2320.5c-0.8,0.5-1.6,1-2.5,1.4c-4.7-4.5-7.3-10.7-7.3-17.2c0-5,1.5-9.8,4.4-13.8
				c1,0.2,1.9,0.4,2.9,0.6l-0.4,0.5c-2.8,3.7-4.3,8.1-4.3,12.7c0,5.9,2.5,11.5,6.8,15.5L73.4,2320.5z"/>
		</g>
		<path class="st31" d="M43.8,2316l-11.5,11.5l0.1,0.1c4.7,4.7,12.4,4.7,17.1,0l2.9-2.9c1-1,1-2.7,0-3.7l-5-5
			C46.5,2315,44.8,2315,43.8,2316z"/>
		<path class="st31" d="M1.8,2278.2l15.8,20.9c1.9-4.8,1.4-10.5-2-14.9C12.2,2279.7,6.9,2277.6,1.8,2278.2"/>
		<path class="st32" d="M1.8,2320l15.8-20.9c1.9,4.8,1.4,10.5-2,14.9C12.2,2318.5,6.9,2320.5,1.8,2320"/>
	</g>
	<g>
		<g>
			<path class="st31" d="M103.9,2381.9l-10.1,3.2c-0.7-0.8-1.3-1.7-1.7-2.7c-1.3-3.3-0.7-7.3,2.1-10l0.1-0.1l6.9,6.9L103.9,2381.9z"
				/>
			<path class="st31" d="M137.1,2381.5l-27.5-0.7l-2.9-2.9l-2.3-2.3c-7.3-7.3-7.3-19.1,0-26.4l0.2-0.2L137.1,2381.5z"/>
		</g>
		<g>
			<path class="st32" d="M101.2,2379.2l2.7,2.7l-10.1,3.2c-0.7-0.8-1.3-1.7-1.7-2.7c1.5-0.7,3.1-1.3,4.7-1.9
				C98.3,2380,99.7,2379.6,101.2,2379.2z"/>
			<path class="st32" d="M137.1,2381.5l-27.5-0.7l-2.9-2.9c4.7-0.9,9.6-1.4,14.7-1.4c4,0,7.9,0.3,11.6,0.9L137.1,2381.5z"/>
		</g>
		<path class="st33" d="M155,2395.5c-3.1,6.3-8,11.6-14,15.3c-0.8,0.5-1.6,1-2.5,1.4c-5.2,2.7-11,4.2-17.2,4.2
			c-17.1,0-31.5-11.4-36.1-27c3.6-2.1,7.4-3.9,11.6-5.4c7.4-2.6,15.7-4.1,24.5-4.1c4.9,0,9.7,0.5,14.3,1.3c1,0.2,1.9,0.4,2.9,0.6
			c6.9,1.6,13.3,4.2,18.9,7.5"/>
		<path class="st34" d="M155,2395.5c-6.2,12.3-18.9,20.8-33.7,20.8c-17.1,0-31.5-11.4-36.1-27c3.6-2.1,7.4-3.9,11.6-5.4l0,0
			C96.8,2394.3,122.6,2419.7,155,2395.5"/>
		<circle class="st6" cx="143.6" cy="2394.7" r="4.5"/>
		<path class="st35" d="M143.6,2396.5c-0.7,0-1.4-0.5-1.7-1.1c-0.3-0.7-0.1-1.5,0.5-2s1.4-0.6,2.1-0.2c0.7,0.4,1,1.2,0.9,1.9
			C145.2,2395.9,144.5,2396.5,143.6,2396.5z"/>
		<g>
			<path class="st34" d="M126.7,2406.1c-2.4,0-4.3-1.9-4.3-4.3c0-1.2,0.5-2.2,1.2-3c-0.7-0.8-1.2-1.8-1.2-3s0.5-2.2,1.2-3
				c-0.7-0.8-1.2-1.8-1.2-3c0-2.4,1.9-4.3,4.3-4.3c0.7,0,1.3,0.6,1.3,1.3s-0.6,1.3-1.3,1.3c-0.9,0-1.6,0.7-1.6,1.6
				c0,0.9,0.7,1.6,1.6,1.6c0.7,0,1.3,0.6,1.3,1.3s-0.6,1.3-1.3,1.3c-0.9,0-1.6,0.7-1.6,1.6c0,0.9,0.7,1.6,1.6,1.6
				c0.7,0,1.3,0.6,1.3,1.3s-0.6,1.3-1.3,1.3c-0.9,0-1.6,0.7-1.6,1.6c0,0.9,0.7,1.6,1.6,1.6c0.7,0,1.3,0.6,1.3,1.3
				S127.5,2406.1,126.7,2406.1z"/>
			<path class="st34" d="M117.4,2400.3c-2.4,0-4.3-1.9-4.3-4.3c0-1.2,0.5-2.2,1.2-3c-0.7-0.8-1.2-1.8-1.2-3c0-2.4,1.9-4.3,4.3-4.3
				c0.7,0,1.3,0.6,1.3,1.3s-0.6,1.3-1.3,1.3c-0.9,0-1.6,0.7-1.6,1.6c0,0.9,0.7,1.6,1.6,1.6c0.7,0,1.3,0.6,1.3,1.3s-0.6,1.3-1.3,1.3
				c-0.9,0-1.6,0.7-1.6,1.6c0,0.9,0.7,1.6,1.6,1.6c0.7,0,1.3,0.6,1.3,1.3C118.7,2399.7,118.1,2400.3,117.4,2400.3z"/>
			<path class="st34" d="M141,2410.8c-0.8,0.5-1.6,1-2.5,1.4c-4.7-4.5-7.3-10.7-7.3-17.2c0-5,1.5-9.8,4.4-13.8
				c1,0.2,1.9,0.4,2.9,0.6l-0.4,0.5c-2.8,3.7-4.3,8.1-4.3,12.7c0,5.9,2.5,11.5,6.8,15.5L141,2410.8z"/>
		</g>
		<path class="st31" d="M111.5,2406.2l-11.5,11.5l0.1,0.1c4.7,4.7,12.4,4.7,17.1,0l2.9-2.9c1-1,1-2.7,0-3.7l-5-5
			C114.1,2405.2,112.5,2405.2,111.5,2406.2z"/>
		<path class="st31" d="M69.4,2368.4l15.8,20.9c1.9-4.8,1.4-10.5-2-14.9C79.9,2370,74.6,2367.9,69.4,2368.4"/>
		<path class="st32" d="M69.4,2410.2l15.8-20.9c1.9,4.8,1.4,10.5-2,14.9C79.9,2408.7,74.6,2410.8,69.4,2410.2"/>
	</g>
	<g>
		<g>
			<path class="st31" d="M129.5,2219.2l-10.1,3.2c-0.7-0.8-1.3-1.7-1.7-2.7c-1.3-3.3-0.7-7.3,2.1-10l0.1-0.1l6.9,6.9L129.5,2219.2z"
				/>
			<path class="st31" d="M162.8,2218.8l-27.5-0.7l-2.9-2.9l-2.3-2.3c-7.3-7.3-7.3-19.1,0-26.4l0.2-0.2L162.8,2218.8z"/>
		</g>
		<g>
			<path class="st32" d="M126.8,2216.5l2.7,2.7l-10.1,3.2c-0.7-0.8-1.3-1.7-1.7-2.7c1.5-0.7,3.1-1.3,4.7-1.9
				C123.9,2217.4,125.4,2216.9,126.8,2216.5z"/>
			<path class="st32" d="M162.8,2218.8l-27.5-0.7l-2.9-2.9c4.7-0.9,9.6-1.4,14.7-1.4c4,0,7.9,0.3,11.6,0.9L162.8,2218.8z"/>
		</g>
		<path class="st33" d="M180.7,2232.9c-3.1,6.3-8,11.6-14,15.3c-0.8,0.5-1.6,1-2.5,1.4c-5.2,2.7-11,4.2-17.2,4.2
			c-17.1,0-31.5-11.4-36.1-27c3.6-2.1,7.4-3.9,11.6-5.4c7.4-2.6,15.7-4.1,24.5-4.1c4.9,0,9.7,0.5,14.3,1.3c1,0.2,1.9,0.4,2.9,0.6
			c6.9,1.6,13.3,4.2,18.9,7.5"/>
		<path class="st34" d="M180.7,2232.9c-6.2,12.3-18.9,20.8-33.7,20.8c-17.1,0-31.5-11.4-36.1-27c3.6-2.1,7.4-3.9,11.6-5.4l0,0
			C122.5,2231.6,148.2,2257,180.7,2232.9"/>
		<circle class="st6" cx="169.3" cy="2232.1" r="4.5"/>
		<path class="st35" d="M169.3,2233.9c-0.7,0-1.4-0.5-1.7-1.1c-0.3-0.7-0.1-1.5,0.5-2s1.4-0.6,2.1-0.2c0.7,0.4,1,1.2,0.9,1.9
			C170.9,2233.3,170.1,2233.9,169.3,2233.9z"/>
		<g>
			<path class="st34" d="M152.4,2243.4c-2.4,0-4.3-1.9-4.3-4.3c0-1.2,0.5-2.2,1.2-3c-0.7-0.8-1.2-1.8-1.2-3s0.5-2.2,1.2-3
				c-0.7-0.8-1.2-1.8-1.2-3c0-2.4,1.9-4.3,4.3-4.3c0.7,0,1.3,0.6,1.3,1.3s-0.6,1.3-1.3,1.3c-0.9,0-1.6,0.7-1.6,1.6
				c0,0.9,0.7,1.6,1.6,1.6c0.7,0,1.3,0.6,1.3,1.3s-0.6,1.3-1.3,1.3c-0.9,0-1.6,0.7-1.6,1.6c0,0.9,0.7,1.6,1.6,1.6
				c0.7,0,1.3,0.6,1.3,1.3s-0.6,1.3-1.3,1.3c-0.9,0-1.6,0.7-1.6,1.6c0,0.9,0.7,1.6,1.6,1.6c0.7,0,1.3,0.6,1.3,1.3
				S153.1,2243.4,152.4,2243.4z"/>
			<path class="st34" d="M143.1,2237.6c-2.4,0-4.3-1.9-4.3-4.3c0-1.2,0.5-2.2,1.2-3c-0.7-0.8-1.2-1.8-1.2-3c0-2.4,1.9-4.3,4.3-4.3
				c0.7,0,1.3,0.6,1.3,1.3s-0.6,1.3-1.3,1.3c-0.9,0-1.6,0.7-1.6,1.6c0,0.9,0.7,1.6,1.6,1.6c0.7,0,1.3,0.6,1.3,1.3s-0.6,1.3-1.3,1.3
				c-0.9,0-1.6,0.7-1.6,1.6c0,0.9,0.7,1.6,1.6,1.6c0.7,0,1.3,0.6,1.3,1.3C144.4,2237,143.8,2237.6,143.1,2237.6z"/>
			<path class="st34" d="M166.7,2248.1c-0.8,0.5-1.6,1-2.5,1.4c-4.7-4.5-7.3-10.7-7.3-17.2c0-5,1.5-9.8,4.4-13.8
				c1,0.2,1.9,0.4,2.9,0.6l-0.4,0.5c-2.8,3.7-4.3,8.1-4.3,12.7c0,5.9,2.5,11.5,6.8,15.5L166.7,2248.1z"/>
		</g>
		<path class="st31" d="M137.1,2243.6l-11.5,11.5l0.1,0.1c4.7,4.7,12.4,4.7,17.1,0l2.9-2.9c1-1,1-2.7,0-3.7l-5-5
			C139.8,2242.6,138.2,2242.6,137.1,2243.6z"/>
		<path class="st31" d="M95.1,2205.8l15.8,20.9c1.9-4.8,1.4-10.5-2-14.9C105.6,2207.3,100.3,2205.2,95.1,2205.8"/>
		<path class="st32" d="M95.1,2247.6l15.8-20.9c1.9,4.8,1.4,10.5-2,14.9C105.6,2246,100.3,2248.1,95.1,2247.6"/>
	</g>
	<g>
		<g>
			<path class="st31" d="M212.7,2278.7l-10.1,3.2c-0.7-0.8-1.3-1.7-1.7-2.7c-1.3-3.3-0.7-7.3,2.1-10l0.1-0.1l6.9,6.9L212.7,2278.7z"
				/>
			<path class="st31" d="M245.9,2278.3l-27.5-0.7l-2.9-2.9l-2.3-2.3c-7.3-7.3-7.3-19.1,0-26.4l0.2-0.2L245.9,2278.3z"/>
		</g>
		<g>
			<path class="st32" d="M209.9,2276l2.7,2.7l-10.1,3.2c-0.7-0.8-1.3-1.7-1.7-2.7c1.5-0.7,3.1-1.3,4.7-1.9
				C207,2276.9,208.5,2276.4,209.9,2276z"/>
			<path class="st32" d="M245.9,2278.3l-27.5-0.7l-2.9-2.9c4.7-0.9,9.6-1.4,14.7-1.4c4,0,7.9,0.3,11.6,0.9L245.9,2278.3z"/>
		</g>
		<path class="st33" d="M263.8,2292.3c-3.1,6.3-8,11.6-14,15.3c-0.8,0.5-1.6,1-2.5,1.4c-5.2,2.7-11,4.2-17.2,4.2
			c-17.1,0-31.5-11.4-36.1-27c3.6-2.1,7.4-3.9,11.6-5.4c7.4-2.6,15.7-4.1,24.5-4.1c4.9,0,9.7,0.5,14.3,1.3c1,0.2,1.9,0.4,2.9,0.6
			c6.9,1.6,13.3,4.2,18.9,7.5"/>
		<path class="st34" d="M263.8,2292.3c-6.2,12.3-18.9,20.8-33.7,20.8c-17.1,0-31.5-11.4-36.1-27c3.6-2.1,7.4-3.9,11.6-5.4l0,0
			C205.6,2291.1,231.3,2316.5,263.8,2292.3"/>
		<circle class="st6" cx="252.4" cy="2291.6" r="4.5"/>
		<path class="st35" d="M252.4,2293.4c-0.7,0-1.4-0.5-1.7-1.1c-0.3-0.7-0.1-1.5,0.5-2s1.4-0.6,2.1-0.2c0.7,0.4,1,1.2,0.9,1.9
			C254,2292.7,253.3,2293.4,252.4,2293.4z"/>
		<g>
			<path class="st34" d="M235.5,2302.9c-2.4,0-4.3-1.9-4.3-4.3c0-1.2,0.5-2.2,1.2-3c-0.7-0.8-1.2-1.8-1.2-3s0.5-2.2,1.2-3
				c-0.7-0.8-1.2-1.8-1.2-3c0-2.4,1.9-4.3,4.3-4.3c0.7,0,1.3,0.6,1.3,1.3s-0.6,1.3-1.3,1.3c-0.9,0-1.6,0.7-1.6,1.6
				c0,0.9,0.7,1.6,1.6,1.6c0.7,0,1.3,0.6,1.3,1.3s-0.6,1.3-1.3,1.3c-0.9,0-1.6,0.7-1.6,1.6c0,0.9,0.7,1.6,1.6,1.6
				c0.7,0,1.3,0.6,1.3,1.3s-0.6,1.3-1.3,1.3c-0.9,0-1.6,0.7-1.6,1.6c0,0.9,0.7,1.6,1.6,1.6c0.7,0,1.3,0.6,1.3,1.3
				S236.3,2302.9,235.5,2302.9z"/>
			<path class="st34" d="M226.2,2297.1c-2.4,0-4.3-1.9-4.3-4.3c0-1.2,0.5-2.2,1.2-3c-0.7-0.8-1.2-1.8-1.2-3c0-2.4,1.9-4.3,4.3-4.3
				c0.7,0,1.3,0.6,1.3,1.3s-0.6,1.3-1.3,1.3c-0.9,0-1.6,0.7-1.6,1.6c0,0.9,0.7,1.6,1.6,1.6c0.7,0,1.3,0.6,1.3,1.3s-0.6,1.3-1.3,1.3
				c-0.9,0-1.6,0.7-1.6,1.6s0.7,1.6,1.6,1.6c0.7,0,1.3,0.6,1.3,1.3S226.9,2297.1,226.2,2297.1z"/>
			<path class="st34" d="M249.8,2307.6c-0.8,0.5-1.6,1-2.5,1.4c-4.7-4.5-7.3-10.7-7.3-17.2c0-5,1.5-9.8,4.4-13.8
				c1,0.2,1.9,0.4,2.9,0.6l-0.4,0.5c-2.8,3.7-4.3,8.1-4.3,12.7c0,5.9,2.5,11.5,6.8,15.5L249.8,2307.6z"/>
		</g>
		<path class="st31" d="M220.2,2303.1l-11.5,11.5l0.1,0.1c4.7,4.7,12.4,4.7,17.1,0l2.9-2.9c1-1,1-2.7,0-3.7l-5-5
			C222.9,2302,221.3,2302,220.2,2303.1z"/>
		<path class="st31" d="M178.2,2265.3l15.8,20.9c1.9-4.8,1.4-10.5-2-14.9C188.7,2266.8,183.4,2264.7,178.2,2265.3"/>
		<path class="st32" d="M178.2,2307.1l15.8-20.9c1.9,4.8,1.4,10.5-2,14.9C188.7,2305.5,183.4,2307.6,178.2,2307.1"/>
	</g>
	<g>
		<g>
			<path class="st31" d="M226.2,2402.2l-10.1,3.2c-0.7-0.8-1.3-1.7-1.7-2.7c-1.3-3.3-0.7-7.3,2.1-10l0.1-0.1l6.9,6.9L226.2,2402.2z"
				/>
			<path class="st31" d="M259.4,2401.8l-27.5-0.7l-2.9-2.9l-2.3-2.3c-7.3-7.3-7.3-19.1,0-26.4l0.2-0.2L259.4,2401.8z"/>
		</g>
		<g>
			<path class="st32" d="M223.5,2399.5l2.7,2.7l-10.1,3.2c-0.7-0.8-1.3-1.7-1.7-2.7c1.5-0.7,3.1-1.3,4.7-1.9
				C220.6,2400.3,222,2399.9,223.5,2399.5z"/>
			<path class="st32" d="M259.4,2401.8l-27.5-0.7l-2.9-2.9c4.7-0.9,9.6-1.4,14.7-1.4c4,0,7.9,0.3,11.6,0.9L259.4,2401.8z"/>
		</g>
		<path class="st33" d="M277.3,2415.8c-3.1,6.3-8,11.6-14,15.3c-0.8,0.5-1.6,1-2.5,1.4c-5.2,2.7-11,4.2-17.2,4.2
			c-17.1,0-31.5-11.4-36.1-27c3.6-2.1,7.4-3.9,11.6-5.4c7.4-2.6,15.7-4.1,24.5-4.1c4.9,0,9.7,0.5,14.3,1.3c1,0.2,1.9,0.4,2.9,0.6
			c6.9,1.6,13.3,4.2,18.9,7.5"/>
		<path class="st34" d="M277.3,2415.8c-6.2,12.3-18.9,20.8-33.7,20.8c-17.1,0-31.5-11.4-36.1-27c3.6-2.1,7.4-3.9,11.6-5.4l0,0
			C219.2,2414.5,244.9,2440,277.3,2415.8"/>
		<circle class="st6" cx="265.9" cy="2415" r="4.5"/>
		<path class="st35" d="M265.9,2416.8c-0.7,0-1.4-0.5-1.7-1.1c-0.3-0.7-0.1-1.5,0.5-2s1.4-0.6,2.1-0.2c0.7,0.4,1,1.2,0.9,1.9
			C267.5,2416.2,266.8,2416.8,265.9,2416.8z"/>
		<g>
			<path class="st34" d="M249.1,2426.4c-2.4,0-4.3-1.9-4.3-4.3c0-1.2,0.5-2.2,1.2-3c-0.7-0.8-1.2-1.8-1.2-3s0.5-2.2,1.2-3
				c-0.7-0.8-1.2-1.8-1.2-3c0-2.4,1.9-4.3,4.3-4.3c0.7,0,1.3,0.6,1.3,1.3s-0.6,1.3-1.3,1.3c-0.9,0-1.6,0.7-1.6,1.6
				c0,0.9,0.7,1.6,1.6,1.6c0.7,0,1.3,0.6,1.3,1.3s-0.6,1.3-1.3,1.3c-0.9,0-1.6,0.7-1.6,1.6c0,0.9,0.7,1.6,1.6,1.6
				c0.7,0,1.3,0.6,1.3,1.3s-0.6,1.3-1.3,1.3c-0.9,0-1.6,0.7-1.6,1.6c0,0.9,0.7,1.6,1.6,1.6c0.7,0,1.3,0.6,1.3,1.3
				S249.8,2426.4,249.1,2426.4z"/>
			<path class="st34" d="M239.7,2420.6c-2.4,0-4.3-1.9-4.3-4.3c0-1.2,0.5-2.2,1.2-3c-0.7-0.8-1.2-1.8-1.2-3c0-2.4,1.9-4.3,4.3-4.3
				c0.7,0,1.3,0.6,1.3,1.3s-0.6,1.3-1.3,1.3c-0.9,0-1.6,0.7-1.6,1.6c0,0.9,0.7,1.6,1.6,1.6c0.7,0,1.3,0.6,1.3,1.3s-0.6,1.3-1.3,1.3
				c-0.9,0-1.6,0.7-1.6,1.6s0.7,1.6,1.6,1.6c0.7,0,1.3,0.6,1.3,1.3S240.5,2420.6,239.7,2420.6z"/>
			<path class="st34" d="M263.4,2431.1c-0.8,0.5-1.6,1-2.5,1.4c-4.7-4.5-7.3-10.7-7.3-17.2c0-5,1.5-9.8,4.4-13.8
				c1,0.2,1.9,0.4,2.9,0.6l-0.4,0.5c-2.8,3.7-4.3,8.1-4.3,12.7c0,5.9,2.5,11.5,6.8,15.5L263.4,2431.1z"/>
		</g>
		<path class="st31" d="M233.8,2426.5l-11.5,11.5l0.1,0.1c4.7,4.7,12.4,4.7,17.1,0l2.9-2.9c1-1,1-2.7,0-3.7l-5-5
			C236.5,2425.5,234.8,2425.5,233.8,2426.5z"/>
		<path class="st31" d="M191.8,2388.7l15.8,20.9c1.9-4.8,1.4-10.5-2-14.9C202.2,2390.3,196.9,2388.2,191.8,2388.7"/>
		<path class="st32" d="M191.8,2430.5l15.8-20.9c1.9,4.8,1.4,10.5-2,14.9C202.2,2429,196.9,2431.1,191.8,2430.5"/>
	</g>
	<g>
		<g>
			<path class="st31" d="M266,2183l-10.1,3.2c-0.7-0.8-1.3-1.7-1.7-2.7c-1.3-3.3-0.7-7.3,2.1-10l0.1-0.1l6.9,6.9L266,2183z"/>
			<path class="st31" d="M299.2,2182.6l-27.5-0.7l-2.9-2.9l-2.3-2.3c-7.3-7.3-7.3-19.1,0-26.4l0.2-0.2L299.2,2182.6z"/>
		</g>
		<g>
			<path class="st32" d="M263.3,2180.3l2.7,2.7l-10.1,3.2c-0.7-0.8-1.3-1.7-1.7-2.7c1.5-0.7,3.1-1.3,4.7-1.9
				C260.4,2181.2,261.8,2180.7,263.3,2180.3z"/>
			<path class="st32" d="M299.2,2182.6l-27.5-0.7l-2.9-2.9c4.7-0.9,9.6-1.4,14.7-1.4c4,0,7.9,0.3,11.6,0.9L299.2,2182.6z"/>
		</g>
		<path class="st33" d="M317.1,2196.7c-3.1,6.3-8,11.6-14,15.3c-0.8,0.5-1.6,1-2.5,1.4c-5.2,2.7-11,4.2-17.2,4.2
			c-17.1,0-31.5-11.4-36.1-27c3.6-2.1,7.4-3.9,11.6-5.4c7.4-2.6,15.7-4.1,24.5-4.1c4.9,0,9.7,0.5,14.3,1.3c1,0.2,1.9,0.4,2.9,0.6
			c6.9,1.6,13.3,4.2,18.9,7.5"/>
		<path class="st34" d="M317.1,2196.7c-6.2,12.3-18.9,20.8-33.7,20.8c-17.1,0-31.5-11.4-36.1-27c3.6-2.1,7.4-3.9,11.6-5.4l0,0
			C259,2195.4,284.7,2220.8,317.1,2196.7"/>
		<circle class="st6" cx="305.8" cy="2195.9" r="4.5"/>
		<path class="st35" d="M305.8,2197.7c-0.7,0-1.4-0.5-1.7-1.1c-0.3-0.7-0.1-1.5,0.5-2s1.4-0.6,2.1-0.2c0.7,0.4,1,1.2,0.9,1.9
			C307.3,2197.1,306.6,2197.7,305.8,2197.7z"/>
		<g>
			<path class="st34" d="M288.9,2207.2c-2.4,0-4.3-1.9-4.3-4.3c0-1.2,0.5-2.2,1.2-3c-0.7-0.8-1.2-1.8-1.2-3s0.5-2.2,1.2-3
				c-0.7-0.8-1.2-1.8-1.2-3c0-2.4,1.9-4.3,4.3-4.3c0.7,0,1.3,0.6,1.3,1.3s-0.6,1.3-1.3,1.3c-0.9,0-1.6,0.7-1.6,1.6
				c0,0.9,0.7,1.6,1.6,1.6c0.7,0,1.3,0.6,1.3,1.3s-0.6,1.3-1.3,1.3c-0.9,0-1.6,0.7-1.6,1.6c0,0.9,0.7,1.6,1.6,1.6
				c0.7,0,1.3,0.6,1.3,1.3s-0.6,1.3-1.3,1.3c-0.9,0-1.6,0.7-1.6,1.6c0,0.9,0.7,1.6,1.6,1.6c0.7,0,1.3,0.6,1.3,1.3
				S289.6,2207.2,288.9,2207.2z"/>
			<path class="st34" d="M279.5,2201.4c-2.4,0-4.3-1.9-4.3-4.3c0-1.2,0.5-2.2,1.2-3c-0.7-0.8-1.2-1.8-1.2-3c0-2.4,1.9-4.3,4.3-4.3
				c0.7,0,1.3,0.6,1.3,1.3s-0.6,1.3-1.3,1.3c-0.9,0-1.6,0.7-1.6,1.6c0,0.9,0.7,1.6,1.6,1.6c0.7,0,1.3,0.6,1.3,1.3s-0.6,1.3-1.3,1.3
				c-0.9,0-1.6,0.7-1.6,1.6c0,0.9,0.7,1.6,1.6,1.6c0.7,0,1.3,0.6,1.3,1.3S280.3,2201.4,279.5,2201.4z"/>
			<path class="st34" d="M303.2,2211.9c-0.8,0.5-1.6,1-2.5,1.4c-4.7-4.5-7.3-10.7-7.3-17.2c0-5,1.5-9.8,4.4-13.8
				c1,0.2,1.9,0.4,2.9,0.6l-0.4,0.5c-2.8,3.7-4.3,8.1-4.3,12.7c0,5.9,2.5,11.5,6.8,15.5L303.2,2211.9z"/>
		</g>
		<path class="st31" d="M273.6,2207.4l-11.5,11.5l0.1,0.1c4.7,4.7,12.4,4.7,17.1,0l2.9-2.9c1-1,1-2.7,0-3.7l-5-5
			C276.3,2206.4,274.6,2206.4,273.6,2207.4z"/>
		<path class="st31" d="M231.6,2169.6l15.8,20.9c1.9-4.8,1.4-10.5-2-14.9C242,2171.1,236.7,2169,231.6,2169.6"/>
		<path class="st32" d="M231.6,2211.4l15.8-20.9c1.9,4.8,1.4,10.5-2,14.9C242,2209.8,236.7,2211.9,231.6,2211.4"/>
	</g>
	<g>
		<g>
			<path class="st31" d="M318.4,2331.3l-10.1,3.2c-0.7-0.8-1.3-1.7-1.7-2.7c-1.3-3.3-0.7-7.3,2.1-10l0.1-0.1l6.9,6.9L318.4,2331.3z"
				/>
			<path class="st31" d="M351.7,2330.9l-27.5-0.7l-2.9-2.9l-2.3-2.3c-7.3-7.3-7.3-19.1,0-26.4l0.2-0.2L351.7,2330.9z"/>
		</g>
		<g>
			<path class="st32" d="M315.7,2328.6l2.7,2.7l-10.1,3.2c-0.7-0.8-1.3-1.7-1.7-2.7c1.5-0.7,3.1-1.3,4.7-1.9
				C312.8,2329.5,314.3,2329,315.7,2328.6z"/>
			<path class="st32" d="M351.7,2330.9l-27.5-0.7l-2.9-2.9c4.7-0.9,9.6-1.4,14.7-1.4c4,0,7.9,0.3,11.6,0.9L351.7,2330.9z"/>
		</g>
		<path class="st33" d="M369.6,2344.9c-3.1,6.3-8,11.6-14,15.3c-0.8,0.5-1.6,1-2.5,1.4c-5.2,2.7-11,4.2-17.2,4.2
			c-17.1,0-31.5-11.4-36.1-27c3.6-2.1,7.4-3.9,11.6-5.4c7.4-2.6,15.7-4.1,24.5-4.1c4.9,0,9.7,0.5,14.3,1.3c1,0.2,1.9,0.4,2.9,0.6
			c6.9,1.6,13.3,4.2,18.9,7.5"/>
		<path class="st34" d="M369.6,2344.9c-6.2,12.3-18.9,20.8-33.7,20.8c-17.1,0-31.5-11.4-36.1-27c3.6-2.1,7.4-3.9,11.6-5.4l0,0
			C311.4,2343.7,337.1,2369.1,369.6,2344.9"/>
		<circle class="st6" cx="358.2" cy="2344.2" r="4.5"/>
		<path class="st35" d="M358.2,2346c-0.7,0-1.4-0.5-1.7-1.1c-0.3-0.7-0.1-1.5,0.5-2s1.4-0.6,2.1-0.2c0.7,0.4,1,1.2,0.9,1.9
			C359.8,2345.3,359.1,2346,358.2,2346z"/>
		<g>
			<path class="st34" d="M341.3,2355.5c-2.4,0-4.3-1.9-4.3-4.3c0-1.2,0.5-2.2,1.2-3c-0.7-0.8-1.2-1.8-1.2-3s0.5-2.2,1.2-3
				c-0.7-0.8-1.2-1.8-1.2-3c0-2.4,1.9-4.3,4.3-4.3c0.7,0,1.3,0.6,1.3,1.3s-0.6,1.3-1.3,1.3c-0.9,0-1.6,0.7-1.6,1.6
				c0,0.9,0.7,1.6,1.6,1.6c0.7,0,1.3,0.6,1.3,1.3s-0.6,1.3-1.3,1.3c-0.9,0-1.6,0.7-1.6,1.6c0,0.9,0.7,1.6,1.6,1.6
				c0.7,0,1.3,0.6,1.3,1.3s-0.6,1.3-1.3,1.3c-0.9,0-1.6,0.7-1.6,1.6c0,0.9,0.7,1.6,1.6,1.6c0.7,0,1.3,0.6,1.3,1.3
				S342.1,2355.5,341.3,2355.5z"/>
			<path class="st34" d="M332,2349.7c-2.4,0-4.3-1.9-4.3-4.3c0-1.2,0.5-2.2,1.2-3c-0.7-0.8-1.2-1.8-1.2-3c0-2.4,1.9-4.3,4.3-4.3
				c0.7,0,1.3,0.6,1.3,1.3s-0.6,1.3-1.3,1.3c-0.9,0-1.6,0.7-1.6,1.6c0,0.9,0.7,1.6,1.6,1.6c0.7,0,1.3,0.6,1.3,1.3s-0.6,1.3-1.3,1.3
				c-0.9,0-1.6,0.7-1.6,1.6c0,0.9,0.7,1.6,1.6,1.6c0.7,0,1.3,0.6,1.3,1.3C333.3,2349.1,332.7,2349.7,332,2349.7z"/>
			<path class="st34" d="M355.6,2360.2c-0.8,0.5-1.6,1-2.5,1.4c-4.7-4.5-7.3-10.7-7.3-17.2c0-5,1.5-9.8,4.4-13.8
				c1,0.2,1.9,0.4,2.9,0.6l-0.4,0.5c-2.8,3.7-4.3,8.1-4.3,12.7c0,5.9,2.5,11.5,6.8,15.5L355.6,2360.2z"/>
		</g>
		<path class="st31" d="M326,2355.7l-11.5,11.5l0.1,0.1c4.7,4.7,12.4,4.7,17.1,0l2.9-2.9c1-1,1-2.7,0-3.7l-5-5
			C328.7,2354.6,327.1,2354.6,326,2355.7z"/>
		<path class="st31" d="M284,2317.9l15.8,20.9c1.9-4.8,1.4-10.5-2-14.9C294.5,2319.4,289.2,2317.3,284,2317.9"/>
		<path class="st32" d="M284,2359.7l15.8-20.9c1.9,4.8,1.4,10.5-2,14.9C294.5,2358.1,289.2,2360.2,284,2359.7"/>
	</g>
	<g>
		<g>
			<path class="st31" d="M138.5,2325l-10.1,3.2c-0.7-0.8-1.3-1.7-1.7-2.7c-1.3-3.3-0.7-7.3,2.1-10l0.1-0.1l6.9,6.9L138.5,2325z"/>
			<path class="st31" d="M171.7,2324.6l-27.5-0.7l-2.9-2.9l-2.3-2.3c-7.3-7.3-7.3-19.1,0-26.4l0.2-0.2L171.7,2324.6z"/>
		</g>
		<g>
			<path class="st32" d="M135.8,2322.3l2.7,2.7l-10.1,3.2c-0.7-0.8-1.3-1.7-1.7-2.7c1.5-0.7,3.1-1.3,4.7-1.9
				C132.9,2323.1,134.3,2322.7,135.8,2322.3z"/>
			<path class="st32" d="M171.7,2324.6l-27.5-0.7l-2.9-2.9c4.7-0.9,9.6-1.4,14.7-1.4c4,0,7.9,0.3,11.6,0.9L171.7,2324.6z"/>
		</g>
		<path class="st33" d="M189.6,2338.6c-3.1,6.3-8,11.6-14,15.3c-0.8,0.5-1.6,1-2.5,1.4c-5.2,2.7-11,4.2-17.2,4.2
			c-17.1,0-31.5-11.4-36.1-27c3.6-2.1,7.4-3.9,11.6-5.4c7.4-2.6,15.7-4.1,24.5-4.1c4.9,0,9.7,0.5,14.3,1.3c1,0.2,1.9,0.4,2.9,0.6
			c6.9,1.6,13.3,4.2,18.9,7.5"/>
		<path class="st34" d="M189.6,2338.6c-6.2,12.3-18.9,20.8-33.7,20.8c-17.1,0-31.5-11.4-36.1-27c3.6-2.1,7.4-3.9,11.6-5.4l0,0
			C131.5,2337.3,157.2,2362.8,189.6,2338.6"/>
		<circle class="st6" cx="178.2" cy="2337.8" r="4.5"/>
		<path class="st35" d="M178.2,2339.6c-0.7,0-1.4-0.5-1.7-1.1c-0.3-0.7-0.1-1.5,0.5-2s1.4-0.6,2.1-0.2c0.7,0.4,1,1.2,0.9,1.9
			C179.8,2339,179.1,2339.6,178.2,2339.6z"/>
		<g>
			<path class="st34" d="M161.4,2349.2c-2.4,0-4.3-1.9-4.3-4.3c0-1.2,0.5-2.2,1.2-3c-0.7-0.8-1.2-1.8-1.2-3s0.5-2.2,1.2-3
				c-0.7-0.8-1.2-1.8-1.2-3c0-2.4,1.9-4.3,4.3-4.3c0.7,0,1.3,0.6,1.3,1.3s-0.6,1.3-1.3,1.3c-0.9,0-1.6,0.7-1.6,1.6
				c0,0.9,0.7,1.6,1.6,1.6c0.7,0,1.3,0.6,1.3,1.3s-0.6,1.3-1.3,1.3c-0.9,0-1.6,0.7-1.6,1.6c0,0.9,0.7,1.6,1.6,1.6
				c0.7,0,1.3,0.6,1.3,1.3s-0.6,1.3-1.3,1.3c-0.9,0-1.6,0.7-1.6,1.6c0,0.9,0.7,1.6,1.6,1.6c0.7,0,1.3,0.6,1.3,1.3
				S162.1,2349.2,161.4,2349.2z"/>
			<path class="st34" d="M152,2343.4c-2.4,0-4.3-1.9-4.3-4.3c0-1.2,0.5-2.2,1.2-3c-0.7-0.8-1.2-1.8-1.2-3c0-2.4,1.9-4.3,4.3-4.3
				c0.7,0,1.3,0.6,1.3,1.3s-0.6,1.3-1.3,1.3c-0.9,0-1.6,0.7-1.6,1.6c0,0.9,0.7,1.6,1.6,1.6c0.7,0,1.3,0.6,1.3,1.3s-0.6,1.3-1.3,1.3
				c-0.9,0-1.6,0.7-1.6,1.6c0,0.9,0.7,1.6,1.6,1.6c0.7,0,1.3,0.6,1.3,1.3C153.4,2342.8,152.8,2343.4,152,2343.4z"/>
			<path class="st34" d="M175.7,2353.9c-0.8,0.5-1.6,1-2.5,1.4c-4.7-4.5-7.3-10.7-7.3-17.2c0-5,1.5-9.8,4.4-13.8
				c1,0.2,1.9,0.4,2.9,0.6l-0.4,0.5c-2.8,3.7-4.3,8.1-4.3,12.7c0,5.9,2.5,11.5,6.8,15.5L175.7,2353.9z"/>
		</g>
		<path class="st31" d="M146.1,2349.3l-11.5,11.5l0.1,0.1c4.7,4.7,12.4,4.7,17.1,0l2.9-2.9c1-1,1-2.7,0-3.7l-5-5
			C148.8,2348.3,147.1,2348.3,146.1,2349.3z"/>
		<path class="st31" d="M104.1,2311.5l15.8,20.9c1.9-4.8,1.4-10.5-2-14.9S109.2,2311,104.1,2311.5"/>
		<path class="st32" d="M104.1,2353.3l15.8-20.9c1.9,4.8,1.4,10.5-2,14.9C114.5,2351.8,109.2,2353.9,104.1,2353.3"/>
	</g>
</g>
<g>
	<g>
		<polygon class="st42" points="1706.8,94 1683.9,95.1 1698.7,112.7 		"/>
		<polygon class="st42" points="1780.9,126.3 1772.7,145 1795.6,143.9 		"/>
		<polygon class="st42" points="1725.9,79 1706.1,67.1 1708.3,89.5 		"/>
		<polygon class="st42" points="1801.1,108.6 1779,102.1 1783.2,122.2 		"/>
		<polygon class="st42" points="1781.5,76.8 1759.7,83.2 1774.4,98 		"/>
		<polygon class="st42" points="1742.7,59.8 1732,79.5 1752.9,80.2 		"/>
		<polygon class="st42" points="1678.2,131 1700.4,137.4 1696.2,117.3 		"/>
		<polygon class="st42" points="1773.2,172.5 1771,150 1753.4,160.6 		"/>
		<polygon class="st42" points="1747.3,160 1726.4,159.3 1736.5,179.8 		"/>
		<polygon class="st42" points="1719.6,156.4 1704.9,141.6 1697.7,162.9 		"/>
		
			<ellipse transform="matrix(0.4003 -0.9164 0.9164 0.4003 933.5526 1665.7024)" class="st42" cx="1739.4" cy="119.6" rx="33.9" ry="34.9"/>
	</g>
	
		<rect x="1680.4" y="57.8" transform="matrix(0.4003 -0.9164 0.9164 0.4003 930.1642 1668.8726)" class="st43" width="119.5" height="132"/>
</g>
<g>
	<polygon class="st5" points="240.6,715.8 319.2,429.7 528.1,719.7 	"/>
	<polygon class="st7" points="324.5,450.9 358.3,585.6 470.3,639.4 331.7,447.1 	"/>
	<polygon class="st6" points="321.6,429.7 294.1,494.2 308.1,513.8 321.3,475.5 346,497.8 346.1,483.7 361.4,483.8 	"/>
</g>
<g>
	<g>
		<polygon class="st5" points="799.5,369.3 656,760.4 1045.2,705.7 		"/>
	</g>
	<g>
		<polygon class="st6" points="765.4,469.8 820,393.2 793.3,384.9 		"/>
		<polygon class="st6" points="834.8,459.4 812.9,377.4 793.3,383.5 		"/>
		<polygon class="st6" points="795.5,476.5 817,383.7 793.1,383.1 		"/>
		<polygon class="st6" points="856.3,442.3 814.4,380.7 787.3,401.2 		"/>
		<polygon class="st6" points="800.7,359.7 790.4,392.1 819.6,388 		"/>
	</g>
	<polygon class="st7" points="1023.3,666.9 884.9,630.8 836.6,544.5 810.4,419.1 831.2,444.7 827.7,427.9 852.3,441.2 	"/>
</g>
<path class="st44" d="M250.3,746.3c7-86.9-59.9-160.3-134.7-164c-99.9-5-164.8,127-142.6,163c22.3,36.2,149.2,4.7,233.4-41.7
	c76.4-42.1,69.8-84.9,116-94c104.8-20.7,180.4,163.8,274,142c70.5-16.4,73.1-131.4,134-135c66.8-3.9,94.9,132.7,169,132
	c68.8-0.6,102.5-118.9,152-108c40.4,8.9,28.6,90.2,75,110c66.3,28.4,136.7-117.7,246-108c87.3,7.8,108.2,106.8,189,109
	c75.8,2.1,90.8-116.3,163-124c39.6-4.2,91.3,22.7,158,124"/>
<path class="st45" d="M-31.4,767.9C67.1,643,155,631.4,201.7,640.2c87.6,16.5,119.3,111.7,200.5,104.7c73-6.4,75.1-82.6,149.6-94.5
	c97.7-15.4,142.1,105.8,237.1,89.4c77.2-13.4,126.4-32.6,197.5-39.6c98.5-9.7,242.8-22,286-34.5c55.5-16.1,244.6,49.8,320.5,44.7
	c81.4-5.4,296.8-73.2,333.7-62.6c21.7,6.3-1.4,71,1,135.3"/>
<g>
	<path class="st46" d="M109.6,800.1c0,0.9-0.9,1.7-1.8,1.7l0,0c-0.9,0-1.8-0.9-1.8-1.7V650.7c0-0.9,0.9-1.7,1.8-1.7l0,0
		c0.9,0,1.8,0.9,1.8,1.7V800.1z"/>
	<path class="st47" d="M16.2,792c4,16.3,43.3,29,91.5,29s87.6-12.9,91.5-29H16.2L16.2,792z"/>
	<g>
		<path class="st48" d="M19.2,797.7c1.8,2.3,4.5,4.6,7.6,6.6h161.5c3.3-2,5.8-4.3,7.6-6.6H19.2z"/>
		<path class="st48" d="M152.6,817c9.2-1.7,17.1-4,24.1-6.6h-138c6.7,2.6,15,4.9,24.1,6.6H152.6z"/>
		<path class="st48" d="M202.4,790.5c0,0.9-0.9,1.7-1.8,1.7H15c-1.2,0-1.8-0.9-1.8-1.7l0,0c0-1.1,0.9-1.7,1.8-1.7h185.3
			C201.5,788.8,202.4,789.4,202.4,790.5L202.4,790.5z"/>
	</g>
	<ellipse class="st46" cx="107.7" cy="648.7" rx="7" ry="6.6"/>
	<path class="st49" d="M185.9,775.1c0-2.6,0.3-5.2,0.3-8c0-59.6-32.4-108.4-72.4-109.5v117.5H185.9z"/>
	<path class="st50" d="M185.9,775.1c0-2.6,0.3-5.2,0.3-8c0-59.6-32.4-108.4-72.4-109.5"/>
	<polygon class="st22" points="101.3,657.6 67.7,673.4 101.3,688.8 	"/>
	<polygon class="st26" points="101.3,671 67.7,673.4 101.3,688.8 	"/>
	<polygon class="st51" points="100.7,693.9 100.7,772.2 46.7,772.2 	"/>
	<polygon class="st52" points="100.7,713.2 100.7,772.2 46.7,772.2 	"/>
</g>
<path class="st45" d="M1933.2,911.7c-162.3,4.3-291-5.9-381.5-16.7c-122.4-14.7-129.1-25.3-129.5-29.3c-1.9-19.9,140.7-39,224-50.2
	c116.5-15.6,214.1-22.1,277.9-25.1"/>
<path class="st45" d="M-130,903.9c198.3,13,427.1,19.9,443.2-20.4c7.2-18-30.4-39-45.2-47.2c-151.7-84.7-437.2,9.1-459.4,16.6"/>
<path class="st53" d="M1921,889c-31.5-0.6-67-4.6-104.9-15c-34.3-9.5-76.4-25.8-75.1-31c0.7-2.7,13.5-1.7,29,0
	c32.6,3.6,81.4,10.7,147,26"/>
<g id="change1">
	<path class="st54" d="M1585,848.4l-18.2-18h10.7l0,0c0.9,0,1.6-0.6,1.6-1.5c0-0.5-0.2-1-0.6-1.3l-13.6-13.9h4.7l0,0
		c0.9,0,1.6-0.6,1.6-1.5c0-0.5-0.2-1.1-0.6-1.4l-15.2-15.6h3.9l0,0c0.9,0,1.6-0.5,1.6-1.4c0-0.5-0.3-0.9-0.7-1.2
		c-1.2-1.1-11.6-10.6-11.6-23.2c0-0.9-0.7-1.6-1.6-1.6s-1.6,0.7-1.6,1.6c0,13.4-11.6,23.3-11.7,23.4c-0.5,0.4-0.7,0.9-0.5,1.6
		c0.2,0.6,0.8,0.9,1.5,0.9h3.9l-15.4,15.7c-0.4,0.5-0.6,1.2-0.3,1.7c0.2,0.6,0.8,1,1.5,1h4.7l-13.8,14c-0.4,0.5-0.6,1.1-0.3,1.7
		c0.2,0.6,0.8,0.9,1.5,0.9h10.7l-18.2,18c-0.5,0.5-0.6,1.4-0.4,2s0.8,1.3,1.5,1.3h73.8c0.6,0,1.2-0.7,1.5-1.3
		C1585.6,849.8,1585.4,848.8,1585,848.4z"/>
</g>
<g id="change1_1_">
	<path class="st55" d="M1641.2,842.3l-18.2-18h10.7l0,0c0.9,0,1.6-0.6,1.6-1.5c0-0.5-0.2-1-0.6-1.3l-13.6-13.9h4.7l0,0
		c0.9,0,1.6-0.6,1.6-1.5c0-0.5-0.2-1.1-0.6-1.4l-15.2-15.6h3.9l0,0c0.9,0,1.6-0.5,1.6-1.4c0-0.5-0.3-0.9-0.7-1.2
		c-1.2-1.1-11.6-10.6-11.6-23.2c0-0.9-0.7-1.6-1.6-1.6s-1.6,0.7-1.6,1.6c0,13.4-11.6,23.3-11.7,23.4c-0.5,0.4-0.7,0.9-0.5,1.6
		c0.2,0.6,0.8,0.9,1.5,0.9h3.9l-15.4,15.7c-0.4,0.5-0.6,1.2-0.3,1.7c0.2,0.6,0.8,1,1.5,1h4.7l-13.8,14c-0.4,0.5-0.6,1.1-0.3,1.7
		c0.2,0.6,0.8,0.9,1.5,0.9h10.7l-18.2,18c-0.5,0.5-0.6,1.4-0.4,2s0.8,1.3,1.5,1.3h73.8c0.6,0,1.2-0.7,1.5-1.3
		C1641.8,843.7,1641.6,842.8,1641.2,842.3z"/>
</g>
<g id="change1_2_">
	<path class="st56" d="M1530.3,867.7l-18.2-18h10.7l0,0c0.9,0,1.6-0.6,1.6-1.5c0-0.5-0.2-1-0.6-1.3l-13.6-13.9h4.7l0,0
		c0.9,0,1.6-0.6,1.6-1.5c0-0.5-0.2-1.1-0.6-1.4l-15.2-15.6h3.9l0,0c0.9,0,1.6-0.5,1.6-1.4c0-0.5-0.3-0.9-0.7-1.2
		c-1.2-1.1-11.6-10.6-11.6-23.2c0-0.9-0.7-1.6-1.6-1.6s-1.6,0.7-1.6,1.6c0,13.4-11.6,23.3-11.7,23.4c-0.5,0.4-0.7,0.9-0.5,1.6
		c0.2,0.6,0.8,0.9,1.5,0.9h3.9l-15.4,15.7c-0.4,0.5-0.6,1.2-0.3,1.7c0.2,0.6,0.8,1,1.5,1h4.7l-13.8,14c-0.4,0.5-0.6,1.1-0.3,1.7
		c0.2,0.6,0.8,0.9,1.5,0.9h10.7l-18.2,18c-0.5,0.5-0.6,1.4-0.4,2s0.8,1.3,1.5,1.3h73.8c0.6,0,1.2-0.7,1.5-1.3
		C1530.9,869.1,1530.7,868.1,1530.3,867.7z"/>
</g>
<g id="change1_4_">
	<path class="st54" d="M1700.3,862.8l-18.2-18h10.7l0,0c0.9,0,1.6-0.6,1.6-1.5c0-0.5-0.2-1-0.6-1.3l-13.6-13.9h4.7l0,0
		c0.9,0,1.6-0.6,1.6-1.5c0-0.5-0.2-1.1-0.6-1.4l-15.2-15.6h3.9l0,0c0.9,0,1.6-0.5,1.6-1.4c0-0.5-0.3-0.9-0.7-1.2
		c-1.2-1.1-11.6-10.6-11.6-23.2c0-0.9-0.7-1.6-1.6-1.6s-1.6,0.7-1.6,1.6c0,13.4-11.6,23.3-11.7,23.4c-0.5,0.4-0.7,0.9-0.5,1.6
		c0.2,0.6,0.8,0.9,1.5,0.9h3.9l-15.4,15.7c-0.4,0.5-0.6,1.2-0.3,1.7c0.2,0.6,0.8,1,1.5,1h4.7l-13.8,14c-0.4,0.5-0.6,1.1-0.3,1.7
		c0.2,0.6,0.8,0.9,1.5,0.9h10.7l-18.2,18c-0.5,0.5-0.6,1.4-0.4,2s0.8,1.3,1.5,1.3h73.8c0.6,0,1.2-0.7,1.5-1.3
		C1700.9,864.2,1700.8,863.2,1700.3,862.8z"/>
</g>
<g id="change1_3_">
	<path class="st55" d="M89.7,839.7l-18.2-18h10.7l0,0c0.9,0,1.6-0.6,1.6-1.5c0-0.5-0.2-1-0.6-1.3L69.6,805h4.7l0,0
		c0.9,0,1.6-0.6,1.6-1.5c0-0.5-0.2-1.1-0.6-1.4l-15.2-15.6H64l0,0c0.9,0,1.6-0.5,1.6-1.4c0-0.5-0.3-0.9-0.7-1.2
		c-1.2-1.1-11.6-10.6-11.6-23.2c0-0.9-0.7-1.6-1.6-1.6c-0.9,0-1.6,0.7-1.6,1.6c0,13.4-11.6,23.3-11.7,23.4c-0.5,0.4-0.7,0.9-0.5,1.6
		c0.2,0.6,0.8,0.9,1.5,0.9h3.9l-15.4,15.7c-0.4,0.5-0.6,1.2-0.3,1.7c0.2,0.6,0.8,1,1.5,1h4.7L20,819c-0.4,0.5-0.6,1.1-0.3,1.7
		c0.2,0.6,0.8,0.9,1.5,0.9h10.7l-18.2,18c-0.5,0.5-0.6,1.4-0.4,2c0.2,0.6,0.8,1.3,1.5,1.3h73.8c0.6,0,1.2-0.7,1.5-1.3
		C90.3,841.1,90.2,840.1,89.7,839.7z"/>
</g>
<g id="change1_5_">
	<path class="st56" d="M135.9,869.4l-18.2-18h10.7l0,0c0.9,0,1.6-0.6,1.6-1.5c0-0.5-0.2-1-0.6-1.3l-13.6-13.9h4.7l0,0
		c0.9,0,1.6-0.6,1.6-1.5c0-0.5-0.2-1.1-0.6-1.4l-15.2-15.6h3.9l0,0c0.9,0,1.6-0.5,1.6-1.4c0-0.5-0.3-0.9-0.7-1.2
		c-1.2-1.1-11.6-10.6-11.6-23.2c0-0.9-0.7-1.6-1.6-1.6s-1.6,0.7-1.6,1.6c0,13.4-11.6,23.3-11.7,23.4c-0.5,0.4-0.7,0.9-0.5,1.6
		c0.2,0.6,0.8,0.9,1.5,0.9h3.9L74.1,832c-0.4,0.5-0.6,1.2-0.3,1.7c0.2,0.6,0.8,1,1.5,1H80l-13.8,14c-0.4,0.5-0.6,1.1-0.3,1.7
		c0.2,0.6,0.8,0.9,1.5,0.9h10.7l-18.2,18c-0.5,0.5-0.6,1.4-0.4,2c0.2,0.6,0.8,1.3,1.5,1.3h73.8c0.6,0,1.2-0.7,1.5-1.3
		C136.5,870.8,136.4,869.8,135.9,869.4z"/>
</g>
<g id="change1_6_">
	<path class="st54" d="M214.7,852.4l-18.2-18h10.7l0,0c0.9,0,1.6-0.6,1.6-1.5c0-0.5-0.2-1-0.6-1.3l-13.6-13.9h4.7l0,0
		c0.9,0,1.6-0.6,1.6-1.5c0-0.5-0.2-1.1-0.6-1.4l-15.2-15.6h3.9l0,0c0.9,0,1.6-0.5,1.6-1.4c0-0.5-0.3-0.9-0.7-1.2
		c-1.2-1.1-11.6-10.6-11.6-23.2c0-0.9-0.7-1.6-1.6-1.6c-0.9,0-1.6,0.7-1.6,1.6c0,13.4-11.6,23.3-11.7,23.4c-0.5,0.4-0.7,0.9-0.5,1.6
		c0.2,0.6,0.8,0.9,1.5,0.9h3.9L152.9,815c-0.4,0.5-0.6,1.2-0.3,1.7c0.2,0.6,0.8,1,1.5,1h4.7l-13.8,14c-0.4,0.5-0.6,1.1-0.3,1.7
		c0.2,0.6,0.8,0.9,1.5,0.9h10.7l-18.2,18c-0.5,0.5-0.6,1.4-0.4,2c0.2,0.6,0.8,1.3,1.5,1.3h73.8c0.6,0,1.2-0.7,1.5-1.3
		C215.3,853.8,215.2,852.8,214.7,852.4z"/>
</g>
<g id="change1_7_">
	<path class="st54" d="M278.6,877.5l-18.2-18h10.7l0,0c0.9,0,1.6-0.6,1.6-1.5c0-0.5-0.2-1-0.6-1.3l-13.6-13.9h4.7l0,0
		c0.9,0,1.6-0.6,1.6-1.5c0-0.5-0.2-1.1-0.6-1.4L249,824.4h3.9l0,0c0.9,0,1.6-0.5,1.6-1.4c0-0.5-0.3-0.9-0.7-1.2
		c-1.2-1.1-11.6-10.6-11.6-23.2c0-0.9-0.7-1.6-1.6-1.6c-0.9,0-1.6,0.7-1.6,1.6c0,13.4-11.6,23.3-11.7,23.4c-0.5,0.4-0.7,0.9-0.5,1.6
		c0.2,0.6,0.8,0.9,1.5,0.9h3.9l-15.4,15.7c-0.4,0.5-0.6,1.2-0.3,1.7c0.2,0.6,0.8,1,1.5,1h4.7l-13.8,14c-0.4,0.5-0.6,1.1-0.3,1.7
		c0.2,0.6,0.8,0.9,1.5,0.9h10.7l-18.2,18c-0.5,0.5-0.6,1.4-0.4,2c0.2,0.6,0.8,1.3,1.5,1.3h73.8c0.6,0,1.2-0.7,1.5-1.3
		C279.2,878.9,279.1,878,278.6,877.5z"/>
</g>
<g id="change1_8_">
	<path class="st56" d="M76.7,904.3l-18.2-18h10.7l0,0c0.9,0,1.6-0.6,1.6-1.5c0-0.5-0.2-1-0.6-1.3l-13.6-13.9h4.7l0,0
		c0.9,0,1.6-0.6,1.6-1.5c0-0.5-0.2-1.1-0.6-1.4l-15.2-15.6H51l0,0c0.9,0,1.6-0.5,1.6-1.4c0-0.5-0.3-0.9-0.7-1.2
		c-1.2-1.1-11.6-10.6-11.6-23.2c0-0.9-0.7-1.6-1.6-1.6c-0.9,0-1.6,0.7-1.6,1.6c0,13.4-11.6,23.3-11.7,23.4c-0.5,0.4-0.7,0.9-0.5,1.6
		c0.2,0.6,0.8,0.9,1.5,0.9h3.9L14.9,867c-0.4,0.5-0.6,1.2-0.3,1.7c0.2,0.6,0.8,1,1.5,1h4.7L7,883.7c-0.4,0.5-0.6,1.1-0.3,1.7
		c0.2,0.6,0.8,0.9,1.5,0.9h10.7l-18.2,18c-0.5,0.5-0.6,1.4-0.4,2s0.8,1.3,1.5,1.3h73.8c0.6,0,1.2-0.7,1.5-1.3
		C77.3,905.8,77.2,904.8,76.7,904.3z"/>
</g>
<g id="change1_9_">
	<path class="st55" d="M174.4,891l-18.2-18H167l0,0c0.9,0,1.6-0.6,1.6-1.5c0-0.5-0.2-1-0.6-1.3l-13.6-13.9h4.7l0,0
		c0.9,0,1.6-0.6,1.6-1.5c0-0.5-0.2-1.1-0.6-1.4l-15.2-15.6h3.9l0,0c0.9,0,1.6-0.5,1.6-1.4c0-0.5-0.3-0.9-0.7-1.2
		c-1.2-1.1-11.6-10.6-11.6-23.2c0-0.9-0.7-1.6-1.6-1.6c-0.9,0-1.6,0.7-1.6,1.6c0,13.4-11.6,23.3-11.7,23.4c-0.5,0.4-0.7,0.9-0.5,1.6
		c0.2,0.6,0.8,0.9,1.5,0.9h3.9l-15.4,15.7c-0.4,0.5-0.6,1.2-0.3,1.7c0.2,0.6,0.8,1,1.5,1h4.7l-13.8,14c-0.4,0.5-0.6,1.1-0.3,1.7
		c0.2,0.6,0.8,0.9,1.5,0.9h10.7l-18.2,18c-0.5,0.5-0.6,1.4-0.4,2s0.8,1.3,1.5,1.3h73.8c0.6,0,1.2-0.7,1.5-1.3
		C175,892.4,174.9,891.4,174.4,891z"/>
</g>
<g id="change1_10_">
	<path class="st54" d="M1658.9,890.2l-18.2-18h10.7l0,0c0.9,0,1.6-0.6,1.6-1.5c0-0.5-0.2-1-0.6-1.3l-13.6-13.9h4.7l0,0
		c0.9,0,1.6-0.6,1.6-1.5c0-0.5-0.2-1.1-0.6-1.4l-15.2-15.6h3.9l0,0c0.9,0,1.6-0.5,1.6-1.4c0-0.5-0.3-0.9-0.7-1.2
		c-1.2-1.1-11.6-10.6-11.6-23.2c0-0.9-0.7-1.6-1.6-1.6s-1.6,0.7-1.6,1.6c0,13.4-11.6,23.3-11.7,23.4c-0.5,0.4-0.7,0.9-0.5,1.6
		c0.2,0.6,0.8,0.9,1.5,0.9h3.9l-15.4,15.7c-0.4,0.5-0.6,1.2-0.3,1.7c0.2,0.6,0.8,1,1.5,1h4.7l-13.8,14c-0.4,0.5-0.6,1.1-0.3,1.7
		c0.2,0.6,0.8,0.9,1.5,0.9h10.7l-18.2,18c-0.5,0.5-0.6,1.4-0.4,2s0.8,1.3,1.5,1.3h73.8c0.6,0,1.2-0.7,1.5-1.3
		C1659.5,891.6,1659.3,890.7,1658.9,890.2z"/>
</g>
<g>
	<ellipse class="st57" cx="100.3" cy="75.3" rx="43.7" ry="25.3"/>
	<ellipse class="st58" cx="63.9" cy="90.7" rx="20.7" ry="12.7"/>
	<ellipse class="st58" cx="143.9" cy="83.3" rx="39.5" ry="17.3"/>
</g>
<g>
	<ellipse class="st57" cx="167.9" cy="244.7" rx="56.8" ry="27.3"/>
	<ellipse class="st58" cx="111.2" cy="254.7" rx="33.6" ry="16.3"/>
	<ellipse class="st58" cx="214.6" cy="254.7" rx="40.3" ry="17.3"/>
</g>
<g>
	<ellipse class="st58" cx="201.3" cy="156.3" rx="67.3" ry="25.7"/>
	<ellipse class="st58" cx="254.9" cy="169" rx="51.4" ry="17.4"/>
	<ellipse class="st58" cx="146.6" cy="169" rx="35.4" ry="17"/>
</g>
<g>
	<path class="st18" d="M875.9,2940.6c-15.8,12.1-125.6-173.3-107.5-201.2c3.5-5.5,11.2-3.8,16.5-2.5c66.5,16,102.9,158.6,93,199.8
		C877.6,2938,877.1,2939.6,875.9,2940.6z"/>
	<path class="st18" d="M834.2,2672.7c0.4,0.6,1.4,2.3,2.5,4.5c7,12.6,58.7,107.7,63.1,241.7c0.6,18.2-0.2,21.1-1.3,21.5
		c-8,3.2-41.7-126.4-69.5-239"/>
	<path class="st18" d="M890.5,2707.1c-3.3,189.5,2.2,232.5,8.3,233.3c6.9,0.9,17.1-52.1,20.1-90.8c4.8-62.5-7.4-112.2-15.3-137.8"/>
	<path class="st18" d="M919.9,2940.4c13.1,3.7,65.5-207.8,53.2-215.1c-6.7-4-35.9,50.7-48.4,110.2
		C915.2,2880.7,913.2,2938.5,919.9,2940.4z"/>
	<path class="st19" d="M820.6,2787c0.6-37.3,3.5-55.9,8.7-56c10.6-0.2,30.6,76,60.2,228.4"/>
	<path class="st19" d="M896.8,2962.3c-12.7-5.7,19.3-209.9,32.9-208.2c7.8,1,14.7,70.4-1.2,134.3
		C920.2,2921.7,903,2965.1,896.8,2962.3z"/>
	<path class="st19" d="M887.8,2955.1c14.3-4.3-3.7-230.6-18.5-230.7c-8.1-0.1-19.2,67.5-11.8,130.5
		C863.1,2902.5,880.5,2957.3,887.8,2955.1z"/>
</g>
<g>
	<path class="st18" d="M1071.3,2966.1c-20.1,3.2-73.1-227-45.4-243.7c5.4-3.3,12.8,2.3,17.8,6.2c63.2,49.5,54.5,201.6,30.9,235
		C1073.8,2964.6,1072.8,2965.8,1071.3,2966.1z"/>
	<path class="st18" d="M1065,2676.5c0.3,0.7,1.1,2.6,2.1,5.1c5.9,14.3,48.6,121.3,33.6,255.9c-2,18.3-3.4,21-4.6,21.2
		c-9.3,1.3-27.1-135.9-41-254.7"/>
	<path class="st18" d="M1129.3,2715.2c-38.5,186.4-40.5,230.5-34,233c7.4,2.9,28.2-46.5,38.6-83.8c16.7-60.4,12.6-113,8.7-140.7"/>
	<path class="st18" d="M1104.3,2944.4c14,6.2,97.2-195.8,84.5-205.5c-6.9-5.3-45.7,43.9-66.6,101.2
		C1106.3,2883.6,1097.2,2941.3,1104.3,2944.4z"/>
	<path class="st19" d="M992.5,2825.2c-11.2-35.3-14.1-54.2-8.7-56.9c10.9-5.5,55.6,55.9,134.4,184.1"/>
	<path class="st19" d="M1079.7,2954.4c-10.9-12.5,93.7-182,106.8-172.8c7.5,5.3-10,73-48.6,122.8
		C1117.8,2930.3,1085,2960.5,1079.7,2954.4z"/>
	<path class="st19" d="M1111.2,2967.7c19-4.2-4.9-226.7-24.4-226.9c-10.7-0.1-25.4,66.4-15.6,128.3
		C1078.6,2916,1101.5,2969.8,1111.2,2967.7z"/>
</g>
<rect y="2895.6" class="st59" width="1921.5" height="190.4"/>
</svg>
