<?xml version="1.0" encoding="utf-8"?>
<!-- Generator: Adobe Illustrator 22.1.0, SVG Export Plug-In . SVG Version: 6.00 Build 0)  -->
<svg version="1.1" id="Layer_1" xmlns="http://www.w3.org/2000/svg" xmlns:xlink="http://www.w3.org/1999/xlink" x="0px" y="0px"
	 viewBox="0 0 3000 2000" style="enable-background:new 0 0 3000 2000;" xml:space="preserve">
<style type="text/css">
	.st0{fill:#F4ED9D;}
	.st1{fill:none;}
</style>
<g>
	<g>
		<polygon class="st0" points="1465.8,970 1442.9,971.1 1457.7,988.7 		"/>
		<polygon class="st0" points="1539.9,1002.3 1531.7,1021 1554.6,1019.9 		"/>
		<polygon class="st0" points="1484.9,955 1465.1,943.1 1467.3,965.5 		"/>
		<polygon class="st0" points="1560.1,984.6 1538,978.1 1542.2,998.2 		"/>
		<polygon class="st0" points="1540.5,952.8 1518.7,959.2 1533.4,974 		"/>
		<polygon class="st0" points="1501.7,935.8 1491,955.5 1511.9,956.2 		"/>
		<polygon class="st0" points="1437.2,1007 1459.4,1013.4 1455.2,993.3 		"/>
		<polygon class="st0" points="1532.2,1048.5 1530,1026 1512.4,1036.6 		"/>
		<polygon class="st0" points="1506.3,1036 1485.4,1035.3 1495.5,1055.8 		"/>
		<polygon class="st0" points="1478.6,1032.4 1463.9,1017.6 1456.7,1038.9 		"/>
		
			<ellipse transform="matrix(0.4003 -0.9164 0.9164 0.4003 -13.7313 1970.1956)" class="st0" cx="1498.4" cy="995.6" rx="33.9" ry="34.9"/>
	</g>
	
		<rect x="1439.4" y="933.8" transform="matrix(0.4003 -0.9164 0.9164 0.4003 -17.1196 1973.3657)" class="st1" width="119.5" height="132"/>
</g>
</svg>
