<?xml version="1.0" encoding="utf-8"?>
<!-- Generator: Adobe Illustrator 22.1.0, SVG Export Plug-In . SVG Version: 6.00 Build 0)  -->
<svg version="1.1" id="Слой_1" xmlns="http://www.w3.org/2000/svg" xmlns:xlink="http://www.w3.org/1999/xlink" x="0px" y="0px"
	 viewBox="0 0 1920 3080" style="enable-background:new 0 0 1920 3080;" xml:space="preserve">
<style type="text/css">
	.st0{fill:url(#SVGID_1_);}
	.st1{fill:#7FDAEF;stroke:#000000;stroke-miterlimit:10;}
	.st2{fill:#DCE041;}
	.st3{fill:#5EC1D1;stroke:#000000;stroke-miterlimit:10;}
	.st4{fill:#4F3DA5;stroke:#000000;stroke-miterlimit:10;}
	.st5{fill:#FFFFFF;}
	.st6{opacity:0.24;clip-path:url(#SVGID_3_);}
	.st7{fill:none;stroke:#FFFFFF;stroke-miterlimit:10;}
	.st8{opacity:0.24;clip-path:url(#SVGID_5_);}
	.st9{opacity:0.24;clip-path:url(#SVGID_7_);}
	.st10{opacity:0.24;clip-path:url(#SVGID_9_);}
	.st11{opacity:0.24;clip-path:url(#SVGID_11_);}
	.st12{opacity:0.24;clip-path:url(#SVGID_13_);}
	.st13{fill:#592F8E;}
	.st14{fill:#BEA5E5;}
	.st15{fill:#08789B;}
	.st16{fill:#27C466;}
	.st17{fill:#06CE1E;}
</style>
<g>
	<g>
		<linearGradient id="SVGID_1_" gradientUnits="userSpaceOnUse" x1="955.1557" y1="1334.2787" x2="965.8647" y2="3070.6772">
			<stop  offset="0" style="stop-color:#146164"/>
			<stop  offset="1" style="stop-color:#1C26ED"/>
		</linearGradient>
		<rect x="0.5" y="1160" class="st0" width="1919" height="1919.5"/>
		<path d="M1919,1160.5V3079H1V1160.5H1919 M1920,1159.5H0V3080h1920V1159.5L1920,1159.5z"/>
	</g>
</g>
<rect x="-0.5" y="0.5" class="st1" width="1921" height="1160"/>
<circle class="st2" cx="161.8" cy="203.8" r="90.3"/>
<polygon class="st3" points="1045.2,730.5 766,1159.5 1324.5,1159.5 "/>
<polygon class="st4" points="214.5,632.5 -0.4,1155.5 429.5,1155.5 "/>
<polygon class="st5" points="212.3,627.1 181,713.3 247,712 "/>
<g>
	<g id="g13991">
		<g id="g13999">
			<defs>
				<polygon id="SVGID_2_" points="333.2,590.2 1114.5,590.2 1114.5,1149.8 333.2,1149.8 333.2,590.2 				"/>
			</defs>
			<clipPath id="SVGID_3_">
				<use xlink:href="#SVGID_2_"  style="overflow:visible;"/>
			</clipPath>
			<g id="g14001" class="st6">
				<g id="g14003" transform="translate(1485.3799,168.5)">
					<path id="path14005" inkscape:connector-curvature="0" d="M-371.6,980.9h-779.8l0.4-0.5l61.7-88.4l89.3-127.9l238.6-341.8
						l139.2,199.4L-372,980.4L-371.6,980.9z"/>
				</g>
				<g id="g14007" transform="translate(1485.3799,168.5)">
					<path id="path14009" inkscape:connector-curvature="0" class="st7" d="M-371.6,980.9h-779.8l0.4-0.5l61.7-88.4l89.3-127.9
						l238.6-341.8l139.2,199.4L-372,980.4L-371.6,980.9z"/>
				</g>
			</g>
		</g>
	</g>
	<g id="g14011">
		<g id="g14019">
			<defs>
				<rect id="SVGID_4_" y="498.5" width="433.7" height="651.3"/>
			</defs>
			<clipPath id="SVGID_5_">
				<use xlink:href="#SVGID_4_"  style="overflow:visible;"/>
			</clipPath>
			<g id="g14021" class="st8">
				<g id="g14023" transform="translate(577.0601,168.5)">
					<path id="path14025" inkscape:connector-curvature="0" d="M-143.9,980.9h-432.8V716.7L-415.5,331l142.4,340.6l92.1,220.4
						L-143.9,980.9z"/>
				</g>
				<g id="g14027" transform="translate(577.0601,168.5)">
					<path id="path14029" inkscape:connector-curvature="0" class="st7" d="M-143.9,980.9h-432.8V716.7L-415.5,331l142.4,340.6
						l92.1,220.4L-143.9,980.9z"/>
				</g>
			</g>
		</g>
	</g>
	<g id="g14031">
		<g id="g14039">
			<defs>
				<polygon id="SVGID_6_" points="243.2,419.1 528,419.1 528,1149.8 243.2,1149.8 243.2,419.1 				"/>
			</defs>
			<clipPath id="SVGID_7_">
				<use xlink:href="#SVGID_6_"  style="overflow:visible;"/>
			</clipPath>
			<g id="g14041" class="st9">
				<g id="g14043" transform="translate(703.01,168.5)">
					<path id="path14045" inkscape:connector-curvature="0" d="M-175.5,980.9h-283.9l60.3-309.3l81.7-419.1l99.7,511.6L-175.5,980.9
						z"/>
				</g>
				<g id="g14047" transform="translate(703.01,168.5)">
					<path id="path14049" inkscape:connector-curvature="0" class="st7" d="M-175.5,980.9h-283.9l60.3-309.3l81.7-419.1l99.7,511.6
						L-175.5,980.9z"/>
				</g>
			</g>
		</g>
	</g>
	<g id="g14051">
		<g id="g14059">
			<defs>
				<polygon id="SVGID_8_" points="712.4,294 1427.7,294 1427.7,1149.8 712.4,1149.8 712.4,294 				"/>
			</defs>
			<clipPath id="SVGID_9_">
				<use xlink:href="#SVGID_8_"  style="overflow:visible;"/>
			</clipPath>
			<g id="g14061" class="st10">
				<g id="g14063" transform="translate(1903.55,168.5)">
					<path id="path14065" inkscape:connector-curvature="0" d="M-476.5,980.9h-714.1l0.2-0.5l149.9-358.6l207-495.3L-609,663.7
						l132.3,316.7L-476.5,980.9z"/>
				</g>
				<g id="g14067" transform="translate(1903.55,168.5)">
					<path id="path14069" inkscape:connector-curvature="0" class="st7" d="M-476.5,980.9h-714.1l0.2-0.5l149.9-358.6l207-495.3
						L-609,663.7l132.3,316.7L-476.5,980.9z"/>
				</g>
			</g>
		</g>
	</g>
	<g id="g13983" transform="matrix(1.25,0,0,-1.25,-354,1175.3615)">
		<g id="g14073">
		</g>
		<g id="g14071">
			<g id="g14079">
				<defs>
					<polygon id="SVGID_10_" points="1155.6,535.2 1669.5,535.2 1669.5,1149.8 1155.6,1149.8 1155.6,535.2 					"/>
				</defs>
				<clipPath id="SVGID_11_">
					<use xlink:href="#SVGID_10_"  style="overflow:visible;"/>
				</clipPath>
				<g id="g14081" class="st11">
					<g id="g14083" transform="translate(2226.47,168.5)">
						<path id="path14085" inkscape:connector-curvature="0" d="M-557.4,980.9h-512.8l0.2-0.5l138-316.7l129.1-296l193.8,483.9v0
							l51.5,128.8L-557.4,980.9z"/>
					</g>
					<g id="g14087" transform="translate(2226.47,168.5)">
						<path id="path14089" inkscape:connector-curvature="0" class="st7" d="M-557.4,980.9h-512.8l0.2-0.5l138-316.7l129.1-296
							l193.8,483.9v0l51.5,128.8L-557.4,980.9z"/>
					</g>
				</g>
			</g>
		</g>
		<g id="g13985">
			<g id="g14093">
			</g>
			<g id="g14091">
				<g id="g14099">
					<defs>
						<rect id="SVGID_12_" x="1606" y="633.5" width="313" height="516.3"/>
					</defs>
					<clipPath id="SVGID_13_">
						<use xlink:href="#SVGID_12_"  style="overflow:visible;"/>
					</clipPath>
					<g id="g14101" class="st12">
						<g id="g14103" transform="translate(2559.5,328.2059)">
							<path id="path14105" inkscape:connector-curvature="0" d="M-640.9,688.8v132.4h-312.1l0.1-0.5l10.8-128.9v0l31.9-385.4
								L-640.9,688.8z"/>
						</g>
						<g id="g14107" transform="translate(2559.5,328.2059)">
							<path id="path14109" inkscape:connector-curvature="0" class="st7" d="M-640.9,688.8v132.4h-312.1l0.1-0.5l10.8-128.9v0
								l31.9-385.4L-640.9,688.8z"/>
						</g>
					</g>
				</g>
			</g>
		</g>
	</g>
	<g id="g14111" transform="matrix(1.25,0,0,-1.25,-341.50013,931.6115)">
		<path id="path14113" inkscape:connector-curvature="0" class="st13" d="M279.8-156.7l-1.8,28.8l220.5,478.4l233.7-507.2H279.8z"/>
	</g>
	<g id="g14115" transform="matrix(1.25,0,0,-1.25,37.150625,931.6115)">
		<path id="path14117" inkscape:connector-curvature="0" class="st13" d="M158.5-156.7l233.7,507.2l233.7-507.2H158.5z"/>
	</g>
	<g id="g14119" transform="matrix(1.25,0,0,-1.25,803.40062,959.1115)">
		<path id="path14121" inkscape:connector-curvature="0" class="st13" d="M-87.1-149.2l233.8,405.5l38.5-66.7l195.2-338.8H-87.1z"/>
	</g>
	<g id="g14123" transform="matrix(1.25,0,0,-1.25,1210.231,796.454)">
		<path id="path14125" inkscape:connector-curvature="0" class="st13" d="M-217.5-193.1l147.2,349.3l45.9-120.3l26.1,67.6
			l129.5-259.6L-217.5-193.1z"/>
	</g>
	<g id="g14127" transform="matrix(1.25,0,0,-1.25,1676.6366,703.86387)">
		<path id="path14129" inkscape:connector-curvature="0" class="st13" d="M-364.5-241.2L-208.8,4.3l26.8-160.5l16.2,67.9l22.5-46
			l17.1,46l26.1-85.4l96.5-81.6L-114.2-305l-280.9,14.7L-364.5-241.2z"/>
	</g>
	<g id="g14131" transform="matrix(1.25,0,0,-1.25,2334.0548,751.00025)">
		<path id="path14133" inkscape:connector-curvature="0" class="st13" d="M-577.6-205.3l245.5-32.8V-48l-78.3,167.8L-577.6-205.3z"
			/>
	</g>
	<g id="g14135" transform="matrix(1.25,0,0,-1.25,1409.0008,965.3615)">
		<path id="path14137" inkscape:connector-curvature="0" class="st13" d="M-281.2-147.6l-197.5,428.7l-197.5-428.7H-281.2z"/>
	</g>
	<g id="g14139" transform="matrix(1.25,0,0,-1.25,114.75,-24.6385)">
		<path id="path14141" inkscape:connector-curvature="0" class="st14" d="M133.6-414.4v-86.2l-37.2-65.6L54-651.1l-31-2.3
			L133.6-414.4z"/>
	</g>
	<g id="g14143" transform="matrix(1.25,0,0,-1.25,524.57875,-24.60725)">
		<path id="path14145" inkscape:connector-curvature="0" class="st14" d="M2.3-414.4l0.1-185.3l-41.7-63l-33.8,17.6l-22.9,17.4
			L2.3-414.4z"/>
	</g>
	<g id="g14147" transform="matrix(1.25,0,0,-1.25,40.31475,246.5985)">
		<path id="path14149" inkscape:connector-curvature="0" class="st14" d="M157.4-341.3l23.3-57.4l-62.2-76.2l-4,53.3L157.4-341.3z"
			/>
	</g>
	<g id="g14151" transform="matrix(1.25,0,0,-1.25,437.66663,442.99975)">
		<path id="path14153" inkscape:connector-curvature="0" class="st14" d="M30.1-288.4l-56.7-58.3h-41.8l-4.2,41.9l46.1,51.2
			L30.1-288.4z"/>
	</g>
	<g id="g14155" transform="matrix(1.25,0,0,-1.25,997.07875,157.26775)">
		<path id="path14157" inkscape:connector-curvature="0" class="st14" d="M-149.2-365.4l-37.9-264.8l-54.9,68.5L-149.2-365.4z"/>
	</g>
	<g id="g14159" transform="matrix(1.25,0,0,-1.25,1115.9441,694.93175)">
		<path id="path14161" inkscape:connector-curvature="0" class="st14" d="M-187.2-220.5l-56.8,21.3l140.7,244.1l-6.3-102.2
			L-187.2-220.5z"/>
	</g>
	<g id="g14163" transform="matrix(1.25,0,0,-1.25,1502.7249,256.6115)">
		<path id="path14165" inkscape:connector-curvature="0" class="st14" d="M-311.2-338.6l55.3-105.1l-100.2,44.9l51.9,123.2
			L-311.2-338.6z"/>
	</g>
	<g id="g14167" transform="matrix(1.25,0,0,-1.25,1667.262,237.286)">
		<path id="path14169" inkscape:connector-curvature="0" class="st14" d="M-363.9-343.8l7.6-72.1l48.5-65.7l-82.1,70.2L-363.9-343.8
			z"/>
	</g>
	<g id="g14171" transform="matrix(1.25,0,0,-1.25,2001.3624,241.03575)">
		<path id="path14173" inkscape:connector-curvature="0" class="st14" d="M-471-342.8L-494.5-507l-64.4,25.6L-471-342.8z"/>
	</g>
	<g id="g14175" transform="matrix(1.25,0,0,-1.25,2137.8634,502.30538)">
		<path id="path14177" inkscape:connector-curvature="0" class="st14" d="M-514.7-272.4l-29.3-83.9l-9.4,62l16.2,67.9"/>
	</g>
	<g id="g14179" transform="matrix(1.25,0,0,-1.25,2173.4868,415.53325)">
		<path id="path14181" inkscape:connector-curvature="0" class="st14" d="M-526.1-295.8l-11.4-57.2l-4.7,13.9L-526.1-295.8z"/>
	</g>
	<g id="g14183" transform="matrix(1.25,0,0,-1.25,2682.7731,137.911)">
		<path id="path14185" inkscape:connector-curvature="0" class="st14" d="M-689.3-370.6l-33.4-242.5l-76.1,29.4L-689.3-370.6z"/>
	</g>
	<g id="g14187" transform="matrix(1.25,0,0,-1.25,1290.7261,194.464)">
		<path id="path14189" inkscape:connector-curvature="0" class="st5" d="M-243.3-355.3l23.6-40.9l-20.1,7.3l-11.6-20.4l3.9,27
			l-18.4-27v15.1L-243.3-355.3z"/>
	</g>
	<g id="g14191" transform="matrix(1.25,0,0,-1.25,997.40875,157.03413)">
		<path id="path14193" inkscape:connector-curvature="0" class="st5" d="M-149.3-365.4l27.7-60.2l-20.6-19.3v22.8l-15-22.8v32.7
			l-20.6-39.8l2.9,32.9L-149.3-365.4z"/>
	</g>
	<g id="g14195" transform="matrix(1.25,0,0,-1.25,524.57875,-24.60725)">
		<path id="path14197" inkscape:connector-curvature="0" class="st5" d="M2.3-414.4l42.9-93.2L20-489.1L7-530.6l-4.8,42.8
			l-22.4-47.3l8.3,51.7l-31.4-51.7l9.4,42.3L2.3-414.4z"/>
	</g>
	<g id="g14199" transform="matrix(1.25,0,0,-1.25,114.65662,-25.102125)">
		<path id="path14201" inkscape:connector-curvature="0" class="st5" d="M133.6-414.5l35.2-76.5l-29.8,15.9L124.4-491l-7.8,15.9
			L98.3-491L133.6-414.5z"/>
	</g>
	<g id="g14203" transform="matrix(1.25,0,0,-1.25,1517.521,137.65812)">
		<path id="path14205" inkscape:connector-curvature="0" class="st5" d="M-315.9-370.7l14.4-37.6l-11.5,12.7v-17.6l-5.3,21.2
			l-7.3-23.9v18.6l-9.4-18.6L-315.9-370.7z"/>
	</g>
	<g id="g14211" transform="matrix(1.25,0,0,-1.25,1652.7581,271.29512)">
		<path id="path14213" inkscape:connector-curvature="0" class="st5" d="M-359.3-334.6l7,18l11.8-23.6l-9.4,5.1l-4.6-5.1
			L-359.3-334.6z"/>
	</g>
	<g id="g14215" transform="matrix(1.25,0,0,-1.25,1993.3969,291.3975)">
		<path id="path14217" inkscape:connector-curvature="0" class="st5" d="M-468.4-329.2l3.8,26.7l6.6-39.8L-468.4-329.2z"/>
	</g>
	<g id="g14219" transform="matrix(1.25,0,0,-1.25,1973.9663,310.82787)">
		<path id="path14221" inkscape:connector-curvature="0" class="st5" d="M-462.2-324l-2.9,11.7l16.1,25.3l-3.8-26.7"/>
	</g>
	<path id="path14379" inkscape:connector-curvature="0" class="st15" d="M0.7,1289.1h1917.8v-337H0.7V1289.1z"/>
	<g id="g14389" transform="matrix(1.25,0,0,-1.25,-353.20625,661.98312)">
		<path id="path14391" inkscape:connector-curvature="0" class="st16" d="M283.5-229.3c53.9,55.7,93.7,85.4,167.3,79.9
			c108.5-8.1,210.3-88.1,317.8-69.2c59.1,10.4,116.2,50.5,174.7,36.3c47.9-11.6,92.6-58.9,139-41.2c47.3,18.1,56.3,89.4,94.4,125.4
			c25.9,24.6,63.9,29.7,96.7,19.3c32.8-10.4,60.8-34.8,83.3-63.1c18.4-23.2,33.8-49.5,54.4-70.4c20.6-20.9,48.4-36.2,75.9-30.9
			c45.1,8.8,74.4,68.7,120.2,68c23.8-0.4,44.4-17.6,66.8-26.7c50.4-20.5,119.9,6.6,144.2,59.5c-0.9,5.5-0.6-155.8,0.4-150.2
			l-1535-0.4C285.1-273.2,282-249.2,283.5-229.3"/>
	</g>
	<g id="g14393" transform="matrix(1.25,0,0,-1.25,2846,759.66138)">
		<path id="path14395" inkscape:connector-curvature="0" class="st17" d="M-741.6-169.5v-12.4l-620.9,0.7
			c43.9,43.6,87.9,87.2,131.8,130.8c17.3,17.2,37.2,35.5,60.6,34.7c20.1-0.6,37.8-15.8,48.8-34.2c11-18.4,16.5-39.9,22.7-60.7
			c2.7-8.9,5.6-18,11-25.4c5.4-7.3,13.8-12.8,22.3-11.8c11,1.3,18.8,12,25.2,21.8c14.9,22.9,29.9,45.9,44.8,68.8
			c11.9,18.2,25,37.4,44.4,44.4c16.2,5.8,33.9,1.9,50.2-3.7C-831.4-40.6-772.2-97.6-741.6-169.5"/>
	</g>
	<g id="g14397" transform="matrix(1.25,0,0,-1.25,862.66663,781.19887)">
		<path id="path14399" inkscape:connector-curvature="0" class="st17" d="M-106.1-197.2l-584-2.6v104.3
			c28.2,45.7,71.9,79.6,120.8,90.7c16,3.7,34,4.7,47.7-5.4c12.8-9.4,19-26.3,25.9-41.5c15.1-33.3,37.8-63.6,68.2-79.7
			c30.4-16.1,69-15.7,95.8,6.7c27.4,22.9,32.1,31.8,58.7,55.9c15.2,13.9,24.6,15.5,44.4,15c17.3-0.4,33.1,4.6,37.6-8.6
			c4.9-14.4,9-29.2,12.3-44.2c3.1-14.1,16.6-28.3,18.2-42.7C-158.8-165-106.1-181.1-106.1-197.2"/>
	</g>
</g>
</svg>
