<?xml version="1.0" encoding="utf-8"?>
<!-- Generator: Adobe Illustrator 15.1.0, SVG Export Plug-In . SVG Version: 6.00 Build 0)  -->
<!DOCTYPE svg PUBLIC "-//W3C//DTD SVG 1.1//EN" "http://www.w3.org/Graphics/SVG/1.1/DTD/svg11.dtd">
<svg version="1.1" id="Layer_1" xmlns="http://www.w3.org/2000/svg" xmlns:xlink="http://www.w3.org/1999/xlink" x="0px" y="0px"
	 width="336.107px" height="500px" viewBox="0 0 336.107 500" enable-background="new 0 0 336.107 500" xml:space="preserve">
<g id="change2">
	<path fill="#7C4D25" d="M180.51,488.115c0,6.565-5.323,11.885-11.889,11.885h-2.285c-6.577,0-11.896-5.319-11.896-11.885V305.637
		c0-6.565,5.319-11.888,11.896-11.888h2.285c6.565,0,11.889,5.323,11.889,11.888V488.115z"/>
</g>
<g id="change1">
	<path fill="#C9D439" d="M334.042,351.682l-79.468-78.597h46.884c0.027,0,0.052,0,0.067,0c3.83,0,6.931-2.727,6.931-6.557
		c0-2.191-1.017-4.275-2.608-5.541l-59.56-60.533h20.521c0.02,0,0.048,0,0.067,0c3.83,0,6.931-2.797,6.931-6.624
		c0-2.191-1.024-4.811-2.616-6.08l-66.554-67.996h17.141c0.02,0,0.051,0,0.066,0c3.831,0,6.928-2.293,6.928-6.116
		c0-2.388-1.198-4.074-3.026-5.328c-5.225-4.598-50.765-46.091-50.765-101.479c0-3.826-3.098-6.833-6.927-6.833
		c-3.826,0-6.927,3.152-6.927,6.975c0,58.299-50.733,101.707-51.246,102.145c-2.234,1.875-3.05,4.141-2.057,6.872
		c1.001,2.738,3.602,3.763,6.51,3.763h17.137L64.369,188.46c-1.958,1.986-2.542,5.06-1.466,7.637
		c1.08,2.577,3.605,4.358,6.399,4.358h20.522l-60.107,61.274c-1.958,1.994-2.534,4.736-1.454,7.317
		c1.076,2.577,3.594,4.039,6.387,4.039h46.88L2.07,351.682c-2.005,1.978-2.62,6.135-1.552,8.731
		c1.068,2.609,3.602,5.478,6.415,5.478h322.246c2.813,0,5.348-2.869,6.415-5.478C336.654,357.816,336.043,353.659,334.042,351.682z"
		/>
</g>
</svg>
