<?xml version="1.0" encoding="utf-8"?>
<!-- Generator: Adobe Illustrator 22.1.0, SVG Export Plug-In . SVG Version: 6.00 Build 0)  -->
<svg version="1.1" id="Слой_1" xmlns="http://www.w3.org/2000/svg" xmlns:xlink="http://www.w3.org/1999/xlink" x="0px" y="0px"
	 viewBox="0 0 1920 3080" style="enable-background:new 0 0 1920 3080;" xml:space="preserve">
<style type="text/css">
	.st0{fill:url(#SVGID_1_);}
	.st1{fill:#7FDAEF;stroke:#000000;stroke-miterlimit:10;}
	.st2{fill:#40A3AD;stroke:#000000;stroke-miterlimit:10;}
	.st3{fill:#5EC1D1;stroke:#000000;stroke-miterlimit:10;}
	.st4{fill:#4F3DA5;stroke:#000000;stroke-miterlimit:10;}
	.st5{fill:#FFFFFF;}
	.st6{fill:#8079B2;stroke:#000000;stroke-miterlimit:10;}
	.st7{fill:#41A348;stroke:#000000;stroke-miterlimit:10;}
	.st8{fill:url(#SVGID_2_);stroke:#000000;stroke-miterlimit:10;}
	.st9{fill:#4EC64E;stroke:#000000;stroke-miterlimit:10;}
	.st10{fill:#45A39F;}
</style>
<g>
	<g>
		
			<linearGradient id="SVGID_1_" gradientUnits="userSpaceOnUse" x1="954.022" y1="-1176.2484" x2="966.1301" y2="787.062" gradientTransform="matrix(1 0 0 1 0 2288)">
			<stop  offset="0" style="stop-color:#146164"/>
			<stop  offset="1" style="stop-color:#1C26ED"/>
		</linearGradient>
		<rect y="914" class="st0" width="1919" height="2172"/>
	</g>
</g>
<rect y="-14.7" class="st1" width="1924.1" height="770.5"/>
<path class="st2" d="M731.9,755.8c-237.2-0.2-474.3-0.5-711.5-0.7c-3.8,0-7.5,0-11.3,0c115.7-205.7,231.5-411.3,347.2-616.9
	L731.9,755.8z"/>
<polygon class="st3" points="689.8,142.5 546.6,751.5 833.1,751.5 "/>
<polygon class="st3" points="1045.2,320.5 766,749.5 1324.5,749.5 "/>
<polygon class="st3" points="1554.2,142.5 1308,751.5 1800.5,751.5 "/>
<path class="st3" d="M1800.6,298.2l-165.3,450c69.7,0,139.4,0,209.1,0c40.5,0,81,0,121.4,0C1910.8,598.2,1855.7,448.2,1800.6,298.2z
	"/>
<g>
	<polygon class="st4" points="541,232.8 326.1,755.8 756,755.8 	"/>
</g>
<g>
	<polygon class="st5" points="496.8,340 552.4,268.8 530.7,256.3 	"/>
	<polygon class="st5" points="557.1,339.4 548.2,251.4 530.8,254.9 	"/>
	<polygon class="st5" points="521.6,351.3 551,258.5 530.7,254.4 	"/>
	<polygon class="st5" points="577.4,324.8 549.1,255 523.6,272.3 	"/>
	<polygon class="st5" points="540,231.3 527.3,263.3 552.7,263.3 	"/>
</g>
<path class="st4" d="M550.5,797.5"/>
<polygon class="st6" points="736,709 584.8,621.9 546.1,482.2 540,289.9 558.8,332.8 558,307.1 583.6,332.8 "/>
<g>
	<polyline class="st4" points="925.5,748 990.4,533 1095.4,511 1139.5,451.7 1179.4,398 1306.5,750.5 	"/>
	<polygon class="st5" points="1146.4,502 1167.4,443 1183.4,511 1183.4,464 1211.2,486.5 1178.4,398 1134.6,458.2 	"/>
	<polygon class="st6" points="1267.7,643 1172.4,574 1151.9,486.5 1172.4,443 1177.5,497 1183.4,464 1211.4,486 	"/>
</g>
<g>
	<polygon class="st4" points="1277,722.2 1355,296.2 1568.2,725.7 	"/>
	<polygon class="st6" points="1360.5,327.7 1395.5,527.7 1509.2,606.8 1367.8,322 	"/>
	<polygon class="st5" points="1357.4,296.2 1329.9,392.3 1344.2,421.4 1357.4,364.3 1382.5,397.3 1382.5,376.3 1398,376.3 	"/>
</g>
<g>
	<polygon class="st4" points="1554.3,763.7 1626.7,322.2 1813.7,535.6 1872.2,754.7 	"/>
	<polygon class="st6" points="1749.7,589.2 1831.8,603 1813.7,535.2 1626.7,322.2 	"/>
	<polygon class="st5" points="1629.3,423.8 1613.7,401.2 1626.7,322.2 1691.7,396.3 1652.7,378.7 	"/>
</g>
<polygon class="st4" points="8,754.6 71.4,392.7 156.4,517.7 224.4,517.7 293,755.8 "/>
<polygon class="st6" points="150.4,598.7 59.4,461.2 71.4,392.7 162.5,517.7 224.4,517.7 254.9,623.6 157.4,605.7 "/>
<polygon class="st5" points="102.4,482.7 63.9,468.1 63.9,424.3 71.4,392.7 125.1,466.3 94.4,449.7 105.4,470.7 "/>
<path class="st7" d="M250.3,746.3c7-86.9-59.9-160.3-134.7-164c-99.9-5-164.8,127-142.6,163c22.3,36.2,149.2,4.7,233.4-41.7
	c76.4-42.1,69.8-84.9,116-94c104.8-20.7,180.4,163.8,274,142c70.5-16.4,73.1-131.4,134-135c66.8-3.9,94.9,132.7,169,132
	c68.8-0.6,102.5-118.9,152-108c40.4,8.9,28.6,90.2,75,110c66.3,28.4,136.7-117.7,246-108c87.3,7.8,108.2,106.8,189,109
	c75.8,2.1,90.8-116.3,163-124c39.6-4.2,91.3,22.7,158,124"/>
<path class="st6" d="M1910.5,1178.5"/>
<linearGradient id="SVGID_2_" gradientUnits="userSpaceOnUse" x1="248.5" y1="-1217.5" x2="248.5" y2="-1217.5" gradientTransform="matrix(1 0 0 1 0 2288)">
	<stop  offset="0" style="stop-color:#146164"/>
	<stop  offset="1" style="stop-color:#1C26ED"/>
</linearGradient>
<path class="st8" d="M248.5,1070.5"/>
<path class="st9" d="M-31.4,767.9C68.6,643,157.8,631.4,205.2,640.2c88.9,16.5,121.1,111.7,203.5,104.7
	c74.1-6.4,76.2-82.6,151.9-94.5c99.2-15.4,144.3,105.8,240.7,89.4c78.4-13.4,128.3-32.6,200.5-39.6c100-9.7,246.5-22,290.3-34.5
	c56.3-16.1,248.3,49.8,325.4,44.7c82.6-5.4,301.3-73.2,338.8-62.6c22,6.3-1.4,71,1,135.3"/>
<path class="st9" d="M1919,1272"/>
<rect y="763.7" class="st10" width="1919" height="150.3"/>
</svg>
